<svg id="my-svg" width="100%" xmlns="http://www.w3.org/2000/svg" xmlns:xlink="http://www.w3.org/1999/xlink" class="erDiagram" style="max-width: 658.219px; background-color: white;" viewBox="0 0 658.21875 519.59375" role="graphics-document document" aria-roledescription="er"><style>#my-svg{font-family:Arial,sans-serif;font-size:16px;fill:#0f172a;}@keyframes edge-animation-frame{from{stroke-dashoffset:0;}}@keyframes dash{to{stroke-dashoffset:0;}}#my-svg .edge-animation-slow{stroke-dasharray:9,5!important;stroke-dashoffset:900;animation:dash 50s linear infinite;stroke-linecap:round;}#my-svg .edge-animation-fast{stroke-dasharray:9,5!important;stroke-dashoffset:900;animation:dash 20s linear infinite;stroke-linecap:round;}#my-svg .error-icon{fill:#ecfeff;}#my-svg .error-text{fill:#130100;stroke:#130100;}#my-svg .edge-thickness-normal{stroke-width:1px;}#my-svg .edge-thickness-thick{stroke-width:3.5px;}#my-svg .edge-pattern-solid{stroke-dasharray:0;}#my-svg .edge-thickness-invisible{stroke-width:0;fill:none;}#my-svg .edge-pattern-dashed{stroke-dasharray:3;}#my-svg .edge-pattern-dotted{stroke-dasharray:2;}#my-svg .marker{fill:#475569;stroke:#475569;}#my-svg .marker.cross{stroke:#475569;}#my-svg svg{font-family:Arial,sans-serif;font-size:16px;}#my-svg p{margin:0;}#my-svg .entityBox{fill:#dbeafe;stroke:#2563eb;}#my-svg .relationshipLabelBox{fill:#ecfeff;opacity:0.7;background-color:#ecfeff;}#my-svg .relationshipLabelBox rect{opacity:0.5;}#my-svg .labelBkg{background-color:rgba(236, 254, 255, 0.5);}#my-svg .edgeLabel{background-color:#ede9fe;}#my-svg .edgeLabel .label rect{fill:#ede9fe;}#my-svg .edgeLabel .label text{fill:#0f172a;}#my-svg .edgeLabel .label{fill:#2563eb;font-size:14px;}#my-svg .label{font-family:Arial,sans-serif;color:#0f172a;}#my-svg .edge-pattern-dashed{stroke-dasharray:8,8;}#my-svg .node rect,#my-svg .node circle,#my-svg .node ellipse,#my-svg .node polygon{fill:#dbeafe;stroke:#2563eb;stroke-width:1px;}#my-svg .relationshipLine{stroke:#475569;stroke-width:1px;fill:none;}#my-svg .marker{fill:none!important;stroke:#475569!important;stroke-width:1;}#my-svg [data-look=neo].labelBkg{background-color:rgba(236, 254, 255, 0.5);}#my-svg .node .neo-node{stroke:#2563eb;}#my-svg [data-look="neo"].node rect,#my-svg [data-look="neo"].cluster rect,#my-svg [data-look="neo"].node polygon{stroke:url(#my-svg-gradient);filter:drop-shadow( 1px 2px 2px rgba(185,185,185,1));}#my-svg [data-look="neo"].node path{stroke:url(#my-svg-gradient);stroke-width:1px;}#my-svg [data-look="neo"].node .outer-path{filter:drop-shadow( 1px 2px 2px rgba(185,185,185,1));}#my-svg [data-look="neo"].node .neo-line path{stroke:#2563eb;filter:none;}#my-svg [data-look="neo"].node circle{stroke:url(#my-svg-gradient);filter:drop-shadow( 1px 2px 2px rgba(185,185,185,1));}#my-svg [data-look="neo"].node circle .state-start{fill:#000000;}#my-svg [data-look="neo"].icon-shape .icon{fill:url(#my-svg-gradient);filter:drop-shadow( 1px 2px 2px rgba(185,185,185,1));}#my-svg [data-look="neo"].icon-shape .icon-neo path{stroke:url(#my-svg-gradient);filter:drop-shadow( 1px 2px 2px rgba(185,185,185,1));}#my-svg :root{--mermaid-font-family:Arial,sans-serif;}</style><g><defs><marker id="my-svg_er-onlyOneStart" class="marker onlyOne er" refX="0" refY="9" markerWidth="18" markerHeight="18" orient="auto"><path d="M9,0 L9,18 M15,0 L15,18"/></marker></defs><defs><marker id="my-svg_er-onlyOneEnd" class="marker onlyOne er" refX="18" refY="9" markerWidth="18" markerHeight="18" orient="auto"><path d="M3,0 L3,18 M9,0 L9,18"/></marker></defs><defs><marker id="my-svg_er-zeroOrOneStart" class="marker zeroOrOne er" refX="0" refY="9" markerWidth="30" markerHeight="18" orient="auto"><circle fill="white" cx="21" cy="9" r="6"/><path d="M9,0 L9,18"/></marker></defs><defs><marker id="my-svg_er-zeroOrOneEnd" class="marker zeroOrOne er" refX="30" refY="9" markerWidth="30" markerHeight="18" orient="auto"><circle fill="white" cx="9" cy="9" r="6"/><path d="M21,0 L21,18"/></marker></defs><defs><marker id="my-svg_er-oneOrMoreStart" class="marker oneOrMore er" refX="18" refY="18" markerWidth="45" markerHeight="36" orient="auto"><path d="M0,18 Q 18,0 36,18 Q 18,36 0,18 M42,9 L42,27"/></marker></defs><defs><marker id="my-svg_er-oneOrMoreEnd" class="marker oneOrMore er" refX="27" refY="18" markerWidth="45" markerHeight="36" orient="auto"><path d="M3,9 L3,27 M9,18 Q27,0 45,18 Q27,36 9,18"/></marker></defs><defs><marker id="my-svg_er-zeroOrMoreStart" class="marker zeroOrMore er" refX="18" refY="18" markerWidth="57" markerHeight="36" orient="auto"><circle fill="white" cx="48" cy="18" r="6"/><path d="M0,18 Q18,0 36,18 Q18,36 0,18"/></marker></defs><defs><marker id="my-svg_er-zeroOrMoreEnd" class="marker zeroOrMore er" refX="39" refY="18" markerWidth="57" markerHeight="36" orient="auto"><circle fill="white" cx="9" cy="18" r="6"/><path d="M21,18 Q39,0 57,18 Q39,36 21,18"/></marker></defs><g class="root"><g class="clusters"/><g class="edgePaths"/><g class="edgeLabels"/><g class="nodes"><g class="node default" id="my-svg-entity-AUDIT_EVENTS-0" data-look="classic" transform="translate(329.109375, 259.796875)"><g class="outer-path" style=""><path d="M-321.109375 -251.796875 L321.109375 -251.796875 L321.109375 251.796875 L-321.109375 251.796875" stroke="none" stroke-width="0" fill="#dbeafe"/><path d="M-321.109375 -251.796875 C-95.0807314417124 -251.796875, 130.9479121165752 -251.796875, 321.109375 -251.796875 M-321.109375 -251.796875 C-67.48944415341305 -251.796875, 186.1304866931739 -251.796875, 321.109375 -251.796875 M321.109375 -251.796875 C321.109375 -79.88073425949443, 321.109375 92.03540648101114, 321.109375 251.796875 M321.109375 -251.796875 C321.109375 -134.80853138895816, 321.109375 -17.820187777916317, 321.109375 251.796875 M321.109375 251.796875 C105.60841596369843 251.796875, -109.89254307260313 251.796875, -321.109375 251.796875 M321.109375 251.796875 C152.86387404280006 251.796875, -15.381626914399874 251.796875, -321.109375 251.796875 M-321.109375 251.796875 C-321.109375 97.4264356758525, -321.109375 -56.944003648294995, -321.109375 -251.796875 M-321.109375 251.796875 C-321.109375 131.15306875974073, -321.109375 10.509262519481439, -321.109375 -251.796875" stroke="#2563eb" stroke-width="1.3" fill="none" stroke-dasharray="0 0"/></g><g style="" class="row-rect-odd"><path d="M-321.109375 -215.8671875 L321.109375 -215.8671875 L321.109375 -180.1171875 L-321.109375 -180.1171875" stroke="none" stroke-width="0" fill="hsl(214.2857142857, 94.5945945946%, 100%)"/><path d="M-321.109375 -215.8671875 C-127.16760521635575 -215.8671875, 66.7741645672885 -215.8671875, 321.109375 -215.8671875 M-321.109375 -215.8671875 C-145.08664485283367 -215.8671875, 30.936085294332656 -215.8671875, 321.109375 -215.8671875 M321.109375 -215.8671875 C321.109375 -208.14467769931235, 321.109375 -200.4221678986247, 321.109375 -180.1171875 M321.109375 -215.8671875 C321.109375 -206.66660169660435, 321.109375 -197.4660158932087, 321.109375 -180.1171875 M321.109375 -180.1171875 C186.47087407818952 -180.1171875, 51.83237315637905 -180.1171875, -321.109375 -180.1171875 M321.109375 -180.1171875 C69.73894297760253 -180.1171875, -181.63148904479493 -180.1171875, -321.109375 -180.1171875 M-321.109375 -180.1171875 C-321.109375 -193.2137243513154, -321.109375 -206.31026120263078, -321.109375 -215.8671875 M-321.109375 -180.1171875 C-321.109375 -192.86057598364383, -321.109375 -205.60396446728762, -321.109375 -215.8671875" stroke="#2563eb" stroke-width="1.3" fill="none" stroke-dasharray="0 0"/></g><g style="" class="row-rect-even"><path d="M-321.109375 -180.1171875 L321.109375 -180.1171875 L321.109375 -144.1875 L-321.109375 -144.1875" stroke="none" stroke-width="0" fill="hsl(214.2857142857, 94.5945945946%, 97.7450980392%)"/><path d="M-321.109375 -180.1171875 C-165.05053319568253 -180.1171875, -8.991691391365066 -180.1171875, 321.109375 -180.1171875 M-321.109375 -180.1171875 C-191.76399666140497 -180.1171875, -62.41861832280995 -180.1171875, 321.109375 -180.1171875 M321.109375 -180.1171875 C321.109375 -168.6390018421999, 321.109375 -157.16081618439978, 321.109375 -144.1875 M321.109375 -180.1171875 C321.109375 -166.93753723417598, 321.109375 -153.75788696835195, 321.109375 -144.1875 M321.109375 -144.1875 C134.04185625677903 -144.1875, -53.025662486441945 -144.1875, -321.109375 -144.1875 M321.109375 -144.1875 C95.66323666001654 -144.1875, -129.78290167996693 -144.1875, -321.109375 -144.1875 M-321.109375 -144.1875 C-321.109375 -155.18667399876045, -321.109375 -166.1858479975209, -321.109375 -180.1171875 M-321.109375 -144.1875 C-321.109375 -152.65695122022683, -321.109375 -161.12640244045366, -321.109375 -180.1171875" stroke="#2563eb" stroke-width="1.3" fill="none" stroke-dasharray="0 0"/></g><g style="" class="row-rect-odd"><path d="M-321.109375 -144.1875 L321.109375 -144.1875 L321.109375 -108.2578125 L-321.109375 -108.2578125" stroke="none" stroke-width="0" fill="hsl(214.2857142857, 94.5945945946%, 100%)"/><path d="M-321.109375 -144.1875 C-70.37017542574742 -144.1875, 180.36902414850516 -144.1875, 321.109375 -144.1875 M-321.109375 -144.1875 C-122.30531817746814 -144.1875, 76.49873864506372 -144.1875, 321.109375 -144.1875 M321.109375 -144.1875 C321.109375 -134.9881382263923, 321.109375 -125.78877645278457, 321.109375 -108.2578125 M321.109375 -144.1875 C321.109375 -132.76807525384808, 321.109375 -121.34865050769615, 321.109375 -108.2578125 M321.109375 -108.2578125 C105.82175475837917 -108.2578125, -109.46586548324166 -108.2578125, -321.109375 -108.2578125 M321.109375 -108.2578125 C140.93733757789215 -108.2578125, -39.2346998442157 -108.2578125, -321.109375 -108.2578125 M-321.109375 -108.2578125 C-321.109375 -118.3577445029923, -321.109375 -128.4576765059846, -321.109375 -144.1875 M-321.109375 -108.2578125 C-321.109375 -122.23628865160968, -321.109375 -136.21476480321937, -321.109375 -144.1875" stroke="#2563eb" stroke-width="1.3" fill="none" stroke-dasharray="0 0"/></g><g style="" class="row-rect-even"><path d="M-321.109375 -108.2578125 L321.109375 -108.2578125 L321.109375 -72.140625 L-321.109375 -72.140625" stroke="none" stroke-width="0" fill="hsl(214.2857142857, 94.5945945946%, 97.7450980392%)"/><path d="M-321.109375 -108.2578125 C-87.85812838427933 -108.2578125, 145.39311823144135 -108.2578125, 321.109375 -108.2578125 M-321.109375 -108.2578125 C-160.8729703231284 -108.2578125, -0.6365656462568268 -108.2578125, 321.109375 -108.2578125 M321.109375 -108.2578125 C321.109375 -94.9517354911465, 321.109375 -81.64565848229299, 321.109375 -72.140625 M321.109375 -108.2578125 C321.109375 -94.22725762180544, 321.109375 -80.19670274361087, 321.109375 -72.140625 M321.109375 -72.140625 C181.01376838284355 -72.140625, 40.9181617656871 -72.140625, -321.109375 -72.140625 M321.109375 -72.140625 C190.70850611299176 -72.140625, 60.30763722598351 -72.140625, -321.109375 -72.140625 M-321.109375 -72.140625 C-321.109375 -86.11953901972677, -321.109375 -100.09845303945355, -321.109375 -108.2578125 M-321.109375 -72.140625 C-321.109375 -85.91215976035502, -321.109375 -99.68369452071005, -321.109375 -108.2578125" stroke="#2563eb" stroke-width="1.3" fill="none" stroke-dasharray="0 0"/></g><g style="" class="row-rect-odd"><path d="M-321.109375 -72.140625 L321.109375 -72.140625 L321.109375 -36.2109375 L-321.109375 -36.2109375" stroke="none" stroke-width="0" fill="hsl(214.2857142857, 94.5945945946%, 100%)"/><path d="M-321.109375 -72.140625 C-160.65759869623162 -72.140625, -0.20582239246323297 -72.140625, 321.109375 -72.140625 M-321.109375 -72.140625 C-174.30901020019954 -72.140625, -27.508645400399075 -72.140625, 321.109375 -72.140625 M321.109375 -72.140625 C321.109375 -61.91441021525136, 321.109375 -51.68819543050272, 321.109375 -36.2109375 M321.109375 -72.140625 C321.109375 -58.53125234853351, 321.109375 -44.92187969706702, 321.109375 -36.2109375 M321.109375 -36.2109375 C148.9218404032649 -36.2109375, -23.26569419347021 -36.2109375, -321.109375 -36.2109375 M321.109375 -36.2109375 C133.61091236088254 -36.2109375, -53.887550278234926 -36.2109375, -321.109375 -36.2109375 M-321.109375 -36.2109375 C-321.109375 -45.4059484962297, -321.109375 -54.6009594924594, -321.109375 -72.140625 M-321.109375 -36.2109375 C-321.109375 -47.77857220053886, -321.109375 -59.346206901077714, -321.109375 -72.140625" stroke="#2563eb" stroke-width="1.3" fill="none" stroke-dasharray="0 0"/></g><g style="" class="row-rect-even"><path d="M-321.109375 -36.2109375 L321.109375 -36.2109375 L321.109375 -0.4609375 L-321.109375 -0.4609375" stroke="none" stroke-width="0" fill="hsl(214.2857142857, 94.5945945946%, 97.7450980392%)"/><path d="M-321.109375 -36.2109375 C-165.39055204084997 -36.2109375, -9.671729081699937 -36.2109375, 321.109375 -36.2109375 M-321.109375 -36.2109375 C-92.01468843766091 -36.2109375, 137.07999812467818 -36.2109375, 321.109375 -36.2109375 M321.109375 -36.2109375 C321.109375 -23.04563140533691, 321.109375 -9.880325310673818, 321.109375 -0.4609375 M321.109375 -36.2109375 C321.109375 -23.85972773118379, 321.109375 -11.508517962367577, 321.109375 -0.4609375 M321.109375 -0.4609375 C84.06953428375658 -0.4609375, -152.97030643248684 -0.4609375, -321.109375 -0.4609375 M321.109375 -0.4609375 C188.623349892598 -0.4609375, 56.13732478519597 -0.4609375, -321.109375 -0.4609375 M-321.109375 -0.4609375 C-321.109375 -8.817785214468973, -321.109375 -17.174632928937946, -321.109375 -36.2109375 M-321.109375 -0.4609375 C-321.109375 -12.591795137146464, -321.109375 -24.72265277429293, -321.109375 -36.2109375" stroke="#2563eb" stroke-width="1.3" fill="none" stroke-dasharray="0 0"/></g><g style="" class="row-rect-odd"><path d="M-321.109375 -0.4609375 L321.109375 -0.4609375 L321.109375 35.65625 L-321.109375 35.65625" stroke="none" stroke-width="0" fill="hsl(214.2857142857, 94.5945945946%, 100%)"/><path d="M-321.109375 -0.4609375 C-100.2616783810989 -0.4609375, 120.5860182378022 -0.4609375, 321.109375 -0.4609375 M-321.109375 -0.4609375 C-79.77798369051047 -0.4609375, 161.55340761897907 -0.4609375, 321.109375 -0.4609375 M321.109375 -0.4609375 C321.109375 7.53061859916784, 321.109375 15.52217469833568, 321.109375 35.65625 M321.109375 -0.4609375 C321.109375 7.906582032193253, 321.109375 16.274101564386505, 321.109375 35.65625 M321.109375 35.65625 C144.86258558447284 35.65625, -31.38420383105432 35.65625, -321.109375 35.65625 M321.109375 35.65625 C125.17913376654698 35.65625, -70.75110746690603 35.65625, -321.109375 35.65625 M-321.109375 35.65625 C-321.109375 24.50196352611536, -321.109375 13.347677052230726, -321.109375 -0.4609375 M-321.109375 35.65625 C-321.109375 26.357551116737103, -321.109375 17.058852233474205, -321.109375 -0.4609375" stroke="#2563eb" stroke-width="1.3" fill="none" stroke-dasharray="0 0"/></g><g style="" class="row-rect-even"><path d="M-321.109375 35.65625 L321.109375 35.65625 L321.109375 71.7734375 L-321.109375 71.7734375" stroke="none" stroke-width="0" fill="hsl(214.2857142857, 94.5945945946%, 97.7450980392%)"/><path d="M-321.109375 35.65625 C-78.63052609835876 35.65625, 163.84832280328249 35.65625, 321.109375 35.65625 M-321.109375 35.65625 C-74.82453865160667 35.65625, 171.46029769678665 35.65625, 321.109375 35.65625 M321.109375 35.65625 C321.109375 43.86907565771543, 321.109375 52.081901315430855, 321.109375 71.7734375 M321.109375 35.65625 C321.109375 46.644326692290136, 321.109375 57.63240338458027, 321.109375 71.7734375 M321.109375 71.7734375 C110.42346680504056 71.7734375, -100.26244138991888 71.7734375, -321.109375 71.7734375 M321.109375 71.7734375 C182.84786070397487 71.7734375, 44.58634640794975 71.7734375, -321.109375 71.7734375 M-321.109375 71.7734375 C-321.109375 58.766293801551384, -321.109375 45.75915010310277, -321.109375 35.65625 M-321.109375 71.7734375 C-321.109375 61.30867272244936, -321.109375 50.84390794489872, -321.109375 35.65625" stroke="#2563eb" stroke-width="1.3" fill="none" stroke-dasharray="0 0"/></g><g style="" class="row-rect-odd"><path d="M-321.109375 71.7734375 L321.109375 71.7734375 L321.109375 107.703125 L-321.109375 107.703125" stroke="none" stroke-width="0" fill="hsl(214.2857142857, 94.5945945946%, 100%)"/><path d="M-321.109375 71.7734375 C-190.3644444005243 71.7734375, -59.61951380104858 71.7734375, 321.109375 71.7734375 M-321.109375 71.7734375 C-176.2152800455966 71.7734375, -31.321185091193172 71.7734375, 321.109375 71.7734375 M321.109375 71.7734375 C321.109375 82.06794010768046, 321.109375 92.36244271536091, 321.109375 107.703125 M321.109375 71.7734375 C321.109375 83.7099986618532, 321.109375 95.6465598237064, 321.109375 107.703125 M321.109375 107.703125 C82.49236875480338 107.703125, -156.12463749039324 107.703125, -321.109375 107.703125 M321.109375 107.703125 C155.64854266224413 107.703125, -9.81228967551175 107.703125, -321.109375 107.703125 M-321.109375 107.703125 C-321.109375 97.87308390269786, -321.109375 88.0430428053957, -321.109375 71.7734375 M-321.109375 107.703125 C-321.109375 99.27221130928315, -321.109375 90.84129761856629, -321.109375 71.7734375" stroke="#2563eb" stroke-width="1.3" fill="none" stroke-dasharray="0 0"/></g><g style="" class="row-rect-even"><path d="M-321.109375 107.703125 L321.109375 107.703125 L321.109375 143.6328125 L-321.109375 143.6328125" stroke="none" stroke-width="0" fill="hsl(214.2857142857, 94.5945945946%, 97.7450980392%)"/><path d="M-321.109375 107.703125 C-125.27536645736217 107.703125, 70.55864208527566 107.703125, 321.109375 107.703125 M-321.109375 107.703125 C-102.13219823933832 107.703125, 116.84497852132336 107.703125, 321.109375 107.703125 M321.109375 107.703125 C321.109375 115.30177624301822, 321.109375 122.90042748603646, 321.109375 143.6328125 M321.109375 107.703125 C321.109375 120.9647888951176, 321.109375 134.2264527902352, 321.109375 143.6328125 M321.109375 143.6328125 C98.00867134702938 143.6328125, -125.09203230594125 143.6328125, -321.109375 143.6328125 M321.109375 143.6328125 C148.47760871983274 143.6328125, -24.15415756033451 143.6328125, -321.109375 143.6328125 M-321.109375 143.6328125 C-321.109375 134.91540617108078, -321.109375 126.19799984216155, -321.109375 107.703125 M-321.109375 143.6328125 C-321.109375 131.21392827419373, -321.109375 118.7950440483875, -321.109375 107.703125" stroke="#2563eb" stroke-width="1.3" fill="none" stroke-dasharray="0 0"/></g><g style="" class="row-rect-odd"><path d="M-321.109375 143.6328125 L321.109375 143.6328125 L321.109375 179.75 L-321.109375 179.75" stroke="none" stroke-width="0" fill="hsl(214.2857142857, 94.5945945946%, 100%)"/><path d="M-321.109375 143.6328125 C-129.03990908708099 143.6328125, 63.02955682583803 143.6328125, 321.109375 143.6328125 M-321.109375 143.6328125 C-91.09550556295062 143.6328125, 138.91836387409876 143.6328125, 321.109375 143.6328125 M321.109375 143.6328125 C321.109375 151.53669304354366, 321.109375 159.44057358708733, 321.109375 179.75 M321.109375 143.6328125 C321.109375 152.24469960127252, 321.109375 160.85658670254506, 321.109375 179.75 M321.109375 179.75 C105.86989253450892 179.75, -109.36958993098216 179.75, -321.109375 179.75 M321.109375 179.75 C96.76493815530574 179.75, -127.57949868938852 179.75, -321.109375 179.75 M-321.109375 179.75 C-321.109375 170.09121614667356, -321.109375 160.43243229334712, -321.109375 143.6328125 M-321.109375 179.75 C-321.109375 166.2679106417426, -321.109375 152.78582128348518, -321.109375 143.6328125" stroke="#2563eb" stroke-width="1.3" fill="none" stroke-dasharray="0 0"/></g><g style="" class="row-rect-even"><path d="M-321.109375 179.75 L321.109375 179.75 L321.109375 215.6796875 L-321.109375 215.6796875" stroke="none" stroke-width="0" fill="hsl(214.2857142857, 94.5945945946%, 97.7450980392%)"/><path d="M-321.109375 179.75 C-126.96910953647946 179.75, 67.17115592704107 179.75, 321.109375 179.75 M-321.109375 179.75 C-136.39890457362708 179.75, 48.311565852745844 179.75, 321.109375 179.75 M321.109375 179.75 C321.109375 192.53894108819352, 321.109375 205.32788217638705, 321.109375 215.6796875 M321.109375 179.75 C321.109375 191.59018009599188, 321.109375 203.4303601919838, 321.109375 215.6796875 M321.109375 215.6796875 C92.24538122921771 215.6796875, -136.61861254156457 215.6796875, -321.109375 215.6796875 M321.109375 215.6796875 C142.94546059411488 215.6796875, -35.218453811770246 215.6796875, -321.109375 215.6796875 M-321.109375 215.6796875 C-321.109375 203.31260354013017, -321.109375 190.94551958026037, -321.109375 179.75 M-321.109375 215.6796875 C-321.109375 204.36583985643082, -321.109375 193.05199221286168, -321.109375 179.75" stroke="#2563eb" stroke-width="1.3" fill="none" stroke-dasharray="0 0"/></g><g style="" class="row-rect-odd"><path d="M-321.109375 215.6796875 L321.109375 215.6796875 L321.109375 251.796875 L-321.109375 251.796875" stroke="none" stroke-width="0" fill="hsl(214.2857142857, 94.5945945946%, 100%)"/><path d="M-321.109375 215.6796875 C-177.79293847024516 215.6796875, -34.47650194049032 215.6796875, 321.109375 215.6796875 M-321.109375 215.6796875 C-98.08375667024862 215.6796875, 124.94186165950276 215.6796875, 321.109375 215.6796875 M321.109375 215.6796875 C321.109375 224.33396292369645, 321.109375 232.9882383473929, 321.109375 251.796875 M321.109375 215.6796875 C321.109375 224.60098985047554, 321.109375 233.52229220095106, 321.109375 251.796875 M321.109375 251.796875 C86.74276029354846 251.796875, -147.62385441290309 251.796875, -321.109375 251.796875 M321.109375 251.796875 C180.71196894827708 251.796875, 40.31456289655415 251.796875, -321.109375 251.796875 M-321.109375 251.796875 C-321.109375 238.53510324207983, -321.109375 225.27333148415963, -321.109375 215.6796875 M-321.109375 251.796875 C-321.109375 238.92172626940007, -321.109375 226.0465775388001, -321.109375 215.6796875" stroke="#2563eb" stroke-width="1.3" fill="none" stroke-dasharray="0 0"/></g><g class="label name" transform="translate(-60.47265625, -242.421875)" style=""><g><rect class="background" style="stroke: none"/></g><text y="-10.1" style=""><tspan class="text-outer-tspan row" x="0" y="-0.1em" dy="1.1em"><tspan font-style="normal" class="text-inner-tspan" font-weight="normal">AUDIT_EVENTS</tspan></tspan></text></g><g class="label attribute-type" transform="translate(-308.609375, -206.4921875)" style=""><g><rect class="background" style="stroke: none"/></g><text y="-10.1" style=""><tspan class="text-outer-tspan row" x="0" y="-0.1em" dy="1.1em"><tspan font-style="normal" class="text-inner-tspan" font-weight="normal">uuid</tspan></tspan></text></g><g class="label attribute-name" transform="translate(-197.359375, -206.4921875)" style=""><g><rect class="background" style="stroke: none"/></g><text y="-10.1" style=""><tspan class="text-outer-tspan row" x="0" y="-0.1em" dy="1.1em"><tspan font-style="normal" class="text-inner-tspan" font-weight="normal">id</tspan></tspan></text></g><g class="label attribute-keys" transform="translate(-54.9375, -206.4921875)" style=""><g><rect class="background" style="stroke: none"/></g><text y="-10.1" style=""><tspan class="text-outer-tspan row" x="0" y="-0.1em" dy="1.1em"><tspan font-style="normal" class="text-inner-tspan" font-weight="normal">PK</tspan></tspan></text></g><g class="label attribute-comment" transform="translate(-7.703125, -206.4921875)" style=""><g><rect class="background" style="stroke: none"/></g><text y="-10.1" style=""><tspan class="text-outer-tspan row" x="0" y="-0.1em" dy="1.1em"/></text></g><g class="label attribute-type" transform="translate(-308.609375, -170.7421875)" style=""><g><rect class="background" style="stroke: none"/></g><text y="-10.1" style=""><tspan class="text-outer-tspan row" x="0" y="-0.1em" dy="1.1em"><tspan font-style="normal" class="text-inner-tspan" font-weight="normal">uuid</tspan></tspan></text></g><g class="label attribute-name" transform="translate(-197.359375, -170.7421875)" style=""><g><rect class="background" style="stroke: none"/></g><text y="-10.1" style=""><tspan class="text-outer-tspan row" x="0" y="-0.1em" dy="1.1em"><tspan font-style="normal" class="text-inner-tspan" font-weight="normal">source_event_id</tspan></tspan></text></g><g class="label attribute-keys" transform="translate(-54.9375, -170.7421875)" style=""><g><rect class="background" style="stroke: none"/></g><text y="-10.1" style=""><tspan class="text-outer-tspan row" x="0" y="-0.1em" dy="1.1em"><tspan font-style="normal" class="text-inner-tspan" font-weight="normal">UK</tspan></tspan></text></g><g class="label attribute-comment" transform="translate(-7.703125, -170.7421875)" style=""><g><rect class="background" style="stroke: none"/></g><text y="-10.1" style=""><tspan class="text-outer-tspan row" x="0" y="-0.1em" dy="1.1em"><tspan font-style="normal" class="text-inner-tspan" font-weight="normal">deduplicates</tspan><tspan font-style="normal" class="text-inner-tspan" font-weight="normal"> producer</tspan><tspan font-style="normal" class="text-inner-tspan" font-weight="normal"> event</tspan></tspan></text></g><g class="label attribute-type" transform="translate(-308.609375, -134.8125)" style=""><g><rect class="background" style="stroke: none"/></g><text y="-10.1" style=""><tspan class="text-outer-tspan row" x="0" y="-0.1em" dy="1.1em"><tspan font-style="normal" class="text-inner-tspan" font-weight="normal">varchar</tspan></tspan></text></g><g class="label attribute-name" transform="translate(-197.359375, -134.8125)" style=""><g><rect class="background" style="stroke: none"/></g><text y="-10.1" style=""><tspan class="text-outer-tspan row" x="0" y="-0.1em" dy="1.1em"><tspan font-style="normal" class="text-inner-tspan" font-weight="normal">producer</tspan></tspan></text></g><g class="label attribute-keys" transform="translate(-54.9375, -134.8125)" style=""><g><rect class="background" style="stroke: none"/></g><text y="-10.1" style=""><tspan class="text-outer-tspan row" x="0" y="-0.1em" dy="1.1em"/></text></g><g class="label attribute-comment" transform="translate(-7.703125, -134.8125)" style=""><g><rect class="background" style="stroke: none"/></g><text y="-10.1" style=""><tspan class="text-outer-tspan row" x="0" y="-0.1em" dy="1.1em"><tspan font-style="normal" class="text-inner-tspan" font-weight="normal">NOT</tspan><tspan font-style="normal" class="text-inner-tspan" font-weight="normal"> NULL</tspan></tspan></text></g><g class="label attribute-type" transform="translate(-308.609375, -98.8828125)" style=""><g><rect class="background" style="stroke: none"/></g><text y="-10.1" style=""><tspan class="text-outer-tspan row" x="0" y="-0.1em" dy="1.1em"><tspan font-style="normal" class="text-inner-tspan" font-weight="normal">uuid</tspan></tspan></text></g><g class="label attribute-name" transform="translate(-197.359375, -98.8828125)" style=""><g><rect class="background" style="stroke: none"/></g><text y="-10.1" style=""><tspan class="text-outer-tspan row" x="0" y="-0.1em" dy="1.1em"><tspan font-style="normal" class="text-inner-tspan" font-weight="normal">actor_id</tspan></tspan></text></g><g class="label attribute-keys" transform="translate(-54.9375, -98.8828125)" style=""><g><rect class="background" style="stroke: none"/></g><text y="-10.1" style=""><tspan class="text-outer-tspan row" x="0" y="-0.1em" dy="1.1em"/></text></g><g class="label attribute-comment" transform="translate(-7.703125, -98.8828125)" style=""><g><rect class="background" style="stroke: none"/></g><text y="-10.1" style=""><tspan class="text-outer-tspan row" x="0" y="-0.1em" dy="1.1em"><tspan font-style="normal" class="text-inner-tspan" font-weight="normal">external</tspan><tspan font-style="normal" class="text-inner-tspan" font-weight="normal"> Identity</tspan><tspan font-style="normal" class="text-inner-tspan" font-weight="normal"> reference;</tspan><tspan font-style="normal" class="text-inner-tspan" font-weight="normal"> nullable;</tspan><tspan font-style="normal" class="text-inner-tspan" font-weight="normal"> NOT</tspan><tspan font-style="normal" class="text-inner-tspan" font-weight="normal"> FK</tspan></tspan></text></g><g class="label attribute-type" transform="translate(-308.609375, -62.765625)" style=""><g><rect class="background" style="stroke: none"/></g><text y="-10.1" style=""><tspan class="text-outer-tspan row" x="0" y="-0.1em" dy="1.1em"><tspan font-style="normal" class="text-inner-tspan" font-weight="normal">varchar</tspan></tspan></text></g><g class="label attribute-name" transform="translate(-197.359375, -62.765625)" style=""><g><rect class="background" style="stroke: none"/></g><text y="-10.1" style=""><tspan class="text-outer-tspan row" x="0" y="-0.1em" dy="1.1em"><tspan font-style="normal" class="text-inner-tspan" font-weight="normal">actor_role</tspan></tspan></text></g><g class="label attribute-keys" transform="translate(-54.9375, -62.765625)" style=""><g><rect class="background" style="stroke: none"/></g><text y="-10.1" style=""><tspan class="text-outer-tspan row" x="0" y="-0.1em" dy="1.1em"/></text></g><g class="label attribute-comment" transform="translate(-7.703125, -62.765625)" style=""><g><rect class="background" style="stroke: none"/></g><text y="-10.1" style=""><tspan class="text-outer-tspan row" x="0" y="-0.1em" dy="1.1em"><tspan font-style="normal" class="text-inner-tspan" font-weight="normal">snapshot;</tspan><tspan font-style="normal" class="text-inner-tspan" font-weight="normal"> nullable</tspan></tspan></text></g><g class="label attribute-type" transform="translate(-308.609375, -26.8359375)" style=""><g><rect class="background" style="stroke: none"/></g><text y="-10.1" style=""><tspan class="text-outer-tspan row" x="0" y="-0.1em" dy="1.1em"><tspan font-style="normal" class="text-inner-tspan" font-weight="normal">varchar</tspan></tspan></text></g><g class="label attribute-name" transform="translate(-197.359375, -26.8359375)" style=""><g><rect class="background" style="stroke: none"/></g><text y="-10.1" style=""><tspan class="text-outer-tspan row" x="0" y="-0.1em" dy="1.1em"><tspan font-style="normal" class="text-inner-tspan" font-weight="normal">action</tspan></tspan></text></g><g class="label attribute-keys" transform="translate(-54.9375, -26.8359375)" style=""><g><rect class="background" style="stroke: none"/></g><text y="-10.1" style=""><tspan class="text-outer-tspan row" x="0" y="-0.1em" dy="1.1em"/></text></g><g class="label attribute-comment" transform="translate(-7.703125, -26.8359375)" style=""><g><rect class="background" style="stroke: none"/></g><text y="-10.1" style=""><tspan class="text-outer-tspan row" x="0" y="-0.1em" dy="1.1em"><tspan font-style="normal" class="text-inner-tspan" font-weight="normal">NOT</tspan><tspan font-style="normal" class="text-inner-tspan" font-weight="normal"> NULL</tspan></tspan></text></g><g class="label attribute-type" transform="translate(-308.609375, 8.9140625)" style=""><g><rect class="background" style="stroke: none"/></g><text y="-10.1" style=""><tspan class="text-outer-tspan row" x="0" y="-0.1em" dy="1.1em"><tspan font-style="normal" class="text-inner-tspan" font-weight="normal">varchar</tspan></tspan></text></g><g class="label attribute-name" transform="translate(-197.359375, 8.9140625)" style=""><g><rect class="background" style="stroke: none"/></g><text y="-10.1" style=""><tspan class="text-outer-tspan row" x="0" y="-0.1em" dy="1.1em"><tspan font-style="normal" class="text-inner-tspan" font-weight="normal">entity_type</tspan></tspan></text></g><g class="label attribute-keys" transform="translate(-54.9375, 8.9140625)" style=""><g><rect class="background" style="stroke: none"/></g><text y="-10.1" style=""><tspan class="text-outer-tspan row" x="0" y="-0.1em" dy="1.1em"/></text></g><g class="label attribute-comment" transform="translate(-7.703125, 8.9140625)" style=""><g><rect class="background" style="stroke: none"/></g><text y="-10.1" style=""><tspan class="text-outer-tspan row" x="0" y="-0.1em" dy="1.1em"><tspan font-style="normal" class="text-inner-tspan" font-weight="normal">NOT</tspan><tspan font-style="normal" class="text-inner-tspan" font-weight="normal"> NULL</tspan></tspan></text></g><g class="label attribute-type" transform="translate(-308.609375, 45.03125)" style=""><g><rect class="background" style="stroke: none"/></g><text y="-10.1" style=""><tspan class="text-outer-tspan row" x="0" y="-0.1em" dy="1.1em"><tspan font-style="normal" class="text-inner-tspan" font-weight="normal">uuid</tspan></tspan></text></g><g class="label attribute-name" transform="translate(-197.359375, 45.03125)" style=""><g><rect class="background" style="stroke: none"/></g><text y="-10.1" style=""><tspan class="text-outer-tspan row" x="0" y="-0.1em" dy="1.1em"><tspan font-style="normal" class="text-inner-tspan" font-weight="normal">entity_id</tspan></tspan></text></g><g class="label attribute-keys" transform="translate(-54.9375, 45.03125)" style=""><g><rect class="background" style="stroke: none"/></g><text y="-10.1" style=""><tspan class="text-outer-tspan row" x="0" y="-0.1em" dy="1.1em"/></text></g><g class="label attribute-comment" transform="translate(-7.703125, 45.03125)" style=""><g><rect class="background" style="stroke: none"/></g><text y="-10.1" style=""><tspan class="text-outer-tspan row" x="0" y="-0.1em" dy="1.1em"><tspan font-style="normal" class="text-inner-tspan" font-weight="normal">external</tspan><tspan font-style="normal" class="text-inner-tspan" font-weight="normal"> reference;</tspan><tspan font-style="normal" class="text-inner-tspan" font-weight="normal"> nullable;</tspan><tspan font-style="normal" class="text-inner-tspan" font-weight="normal"> NOT</tspan><tspan font-style="normal" class="text-inner-tspan" font-weight="normal"> FK</tspan></tspan></text></g><g class="label attribute-type" transform="translate(-308.609375, 81.1484375)" style=""><g><rect class="background" style="stroke: none"/></g><text y="-10.1" style=""><tspan class="text-outer-tspan row" x="0" y="-0.1em" dy="1.1em"><tspan font-style="normal" class="text-inner-tspan" font-weight="normal">uuid</tspan></tspan></text></g><g class="label attribute-name" transform="translate(-197.359375, 81.1484375)" style=""><g><rect class="background" style="stroke: none"/></g><text y="-10.1" style=""><tspan class="text-outer-tspan row" x="0" y="-0.1em" dy="1.1em"><tspan font-style="normal" class="text-inner-tspan" font-weight="normal">correlation_id</tspan></tspan></text></g><g class="label attribute-keys" transform="translate(-54.9375, 81.1484375)" style=""><g><rect class="background" style="stroke: none"/></g><text y="-10.1" style=""><tspan class="text-outer-tspan row" x="0" y="-0.1em" dy="1.1em"/></text></g><g class="label attribute-comment" transform="translate(-7.703125, 81.1484375)" style=""><g><rect class="background" style="stroke: none"/></g><text y="-10.1" style=""><tspan class="text-outer-tspan row" x="0" y="-0.1em" dy="1.1em"><tspan font-style="normal" class="text-inner-tspan" font-weight="normal">NOT</tspan><tspan font-style="normal" class="text-inner-tspan" font-weight="normal"> NULL;</tspan><tspan font-style="normal" class="text-inner-tspan" font-weight="normal"> indexed</tspan></tspan></text></g><g class="label attribute-type" transform="translate(-308.609375, 117.078125)" style=""><g><rect class="background" style="stroke: none"/></g><text y="-10.1" style=""><tspan class="text-outer-tspan row" x="0" y="-0.1em" dy="1.1em"><tspan font-style="normal" class="text-inner-tspan" font-weight="normal">varchar</tspan></tspan></text></g><g class="label attribute-name" transform="translate(-197.359375, 117.078125)" style=""><g><rect class="background" style="stroke: none"/></g><text y="-10.1" style=""><tspan class="text-outer-tspan row" x="0" y="-0.1em" dy="1.1em"><tspan font-style="normal" class="text-inner-tspan" font-weight="normal">schema_version</tspan></tspan></text></g><g class="label attribute-keys" transform="translate(-54.9375, 117.078125)" style=""><g><rect class="background" style="stroke: none"/></g><text y="-10.1" style=""><tspan class="text-outer-tspan row" x="0" y="-0.1em" dy="1.1em"/></text></g><g class="label attribute-comment" transform="translate(-7.703125, 117.078125)" style=""><g><rect class="background" style="stroke: none"/></g><text y="-10.1" style=""><tspan class="text-outer-tspan row" x="0" y="-0.1em" dy="1.1em"><tspan font-style="normal" class="text-inner-tspan" font-weight="normal">NOT</tspan><tspan font-style="normal" class="text-inner-tspan" font-weight="normal"> NULL</tspan></tspan></text></g><g class="label attribute-type" transform="translate(-308.609375, 153.0078125)" style=""><g><rect class="background" style="stroke: none"/></g><text y="-10.1" style=""><tspan class="text-outer-tspan row" x="0" y="-0.1em" dy="1.1em"><tspan font-style="normal" class="text-inner-tspan" font-weight="normal">jsonb</tspan></tspan></text></g><g class="label attribute-name" transform="translate(-197.359375, 153.0078125)" style=""><g><rect class="background" style="stroke: none"/></g><text y="-10.1" style=""><tspan class="text-outer-tspan row" x="0" y="-0.1em" dy="1.1em"><tspan font-style="normal" class="text-inner-tspan" font-weight="normal">metadata</tspan></tspan></text></g><g class="label attribute-keys" transform="translate(-54.9375, 153.0078125)" style=""><g><rect class="background" style="stroke: none"/></g><text y="-10.1" style=""><tspan class="text-outer-tspan row" x="0" y="-0.1em" dy="1.1em"/></text></g><g class="label attribute-comment" transform="translate(-7.703125, 153.0078125)" style=""><g><rect class="background" style="stroke: none"/></g><text y="-10.1" style=""><tspan class="text-outer-tspan row" x="0" y="-0.1em" dy="1.1em"><tspan font-style="normal" class="text-inner-tspan" font-weight="normal">allowlisted;</tspan><tspan font-style="normal" class="text-inner-tspan" font-weight="normal"> no</tspan><tspan font-style="normal" class="text-inner-tspan" font-weight="normal"> secrets</tspan></tspan></text></g><g class="label attribute-type" transform="translate(-308.609375, 189.125)" style=""><g><rect class="background" style="stroke: none"/></g><text y="-10.1" style=""><tspan class="text-outer-tspan row" x="0" y="-0.1em" dy="1.1em"><tspan font-style="normal" class="text-inner-tspan" font-weight="normal">timestamptz</tspan></tspan></text></g><g class="label attribute-name" transform="translate(-197.359375, 189.125)" style=""><g><rect class="background" style="stroke: none"/></g><text y="-10.1" style=""><tspan class="text-outer-tspan row" x="0" y="-0.1em" dy="1.1em"><tspan font-style="normal" class="text-inner-tspan" font-weight="normal">occurred_at</tspan></tspan></text></g><g class="label attribute-keys" transform="translate(-54.9375, 189.125)" style=""><g><rect class="background" style="stroke: none"/></g><text y="-10.1" style=""><tspan class="text-outer-tspan row" x="0" y="-0.1em" dy="1.1em"/></text></g><g class="label attribute-comment" transform="translate(-7.703125, 189.125)" style=""><g><rect class="background" style="stroke: none"/></g><text y="-10.1" style=""><tspan class="text-outer-tspan row" x="0" y="-0.1em" dy="1.1em"><tspan font-style="normal" class="text-inner-tspan" font-weight="normal">producer</tspan><tspan font-style="normal" class="text-inner-tspan" font-weight="normal"> UTC</tspan><tspan font-style="normal" class="text-inner-tspan" font-weight="normal"> timestamp</tspan></tspan></text></g><g class="label attribute-type" transform="translate(-308.609375, 225.0546875)" style=""><g><rect class="background" style="stroke: none"/></g><text y="-10.1" style=""><tspan class="text-outer-tspan row" x="0" y="-0.1em" dy="1.1em"><tspan font-style="normal" class="text-inner-tspan" font-weight="normal">timestamptz</tspan></tspan></text></g><g class="label attribute-name" transform="translate(-197.359375, 225.0546875)" style=""><g><rect class="background" style="stroke: none"/></g><text y="-10.1" style=""><tspan class="text-outer-tspan row" x="0" y="-0.1em" dy="1.1em"><tspan font-style="normal" class="text-inner-tspan" font-weight="normal">recorded_at</tspan></tspan></text></g><g class="label attribute-keys" transform="translate(-54.9375, 225.0546875)" style=""><g><rect class="background" style="stroke: none"/></g><text y="-10.1" style=""><tspan class="text-outer-tspan row" x="0" y="-0.1em" dy="1.1em"/></text></g><g class="label attribute-comment" transform="translate(-7.703125, 225.0546875)" style=""><g><rect class="background" style="stroke: none"/></g><text y="-10.1" style=""><tspan class="text-outer-tspan row" x="0" y="-0.1em" dy="1.1em"><tspan font-style="normal" class="text-inner-tspan" font-weight="normal">ingestion</tspan><tspan font-style="normal" class="text-inner-tspan" font-weight="normal"> UTC</tspan><tspan font-style="normal" class="text-inner-tspan" font-weight="normal"> timestamp</tspan></tspan></text></g><g class="divider"><path d="M-321.109375 -215.8672375 L-321.109375 -215.8671375 L321.109375 -215.8671375 L321.109375 -215.8672375" stroke="none" stroke-width="0" fill="#dbeafe" fill-rule="evenodd"/><path d="M-321.109375 -215.8672375 C-321.109375 -215.86719752152064, -321.109375 -215.86715754304126, -321.109375 -215.8671375 M-321.109375 -215.8672375 C-321.109375 -215.8672089276078, -321.109375 -215.86718035521565, -321.109375 -215.8671375 M-321.109375 -215.8671375 C-112.51329848498341 -215.8671375, 96.08277803003318 -215.8671375, 321.109375 -215.8671375 M-321.109375 -215.8671375 C-142.38799814468882 -215.8671375, 36.333378710622355 -215.8671375, 321.109375 -215.8671375 M321.109375 -215.8671375 C321.109375 -215.86717286320547, 321.109375 -215.86720822641095, 321.109375 -215.8672375 M321.109375 -215.8671375 C321.109375 -215.8671734936846, 321.109375 -215.8672094873692, 321.109375 -215.8672375 M321.109375 -215.8672375 C155.81910879265124 -215.8672375, -9.47115741469753 -215.8672375, -321.109375 -215.8672375 M321.109375 -215.8672375 C103.87805463662687 -215.8672375, -113.35326572674626 -215.8672375, -321.109375 -215.8672375" stroke="#2563eb" stroke-width="1.3" fill="none" stroke-dasharray="0 0"/></g><g class="divider"><path d="M-209.859425 -215.8671875 L-209.859325 -215.8671875 L-209.859325 251.796875 L-209.859425 251.796875" stroke="none" stroke-width="0" fill="#dbeafe" fill-rule="evenodd"/><path d="M-209.859425 -215.8671875 C-209.85939565510216 -215.8671875, -209.85936631020436 -215.8671875, -209.859325 -215.8671875 M-209.859425 -215.8671875 C-209.85940340833454 -215.8671875, -209.8593818166691 -215.8671875, -209.859325 -215.8671875 M-209.859325 -215.8671875 C-209.859325 -44.606155698530245, -209.859325 126.65487610293951, -209.859325 251.796875 M-209.859325 -215.8671875 C-209.859325 -106.75563721836971, -209.859325 2.355913063260573, -209.859325 251.796875 M-209.859325 251.796875 C-209.85935744890648 251.796875, -209.85938989781292 251.796875, -209.859425 251.796875 M-209.859325 251.796875 C-209.85936022747677 251.796875, -209.85939545495356 251.796875, -209.859425 251.796875 M-209.859425 251.796875 C-209.859425 105.76860631692446, -209.859425 -40.259662366151076, -209.859425 -215.8671875 M-209.859425 251.796875 C-209.859425 73.8759617555016, -209.859425 -104.04495148899679, -209.859425 -215.8671875" stroke="#2563eb" stroke-width="1.3" fill="none" stroke-dasharray="0 0"/></g><g class="divider"><path d="M-67.43755 -215.8671875 L-67.43745 -215.8671875 L-67.43745 251.796875 L-67.43755 251.796875" stroke="none" stroke-width="0" fill="#dbeafe" fill-rule="evenodd"/><path d="M-67.43755 -215.8671875 C-67.43752991051191 -215.8671875, -67.43750982102384 -215.8671875, -67.43745 -215.8671875 M-67.43755 -215.8671875 C-67.43752730258727 -215.8671875, -67.43750460517454 -215.8671875, -67.43745 -215.8671875 M-67.43745 -215.8671875 C-67.43745 -41.9200554234431, -67.43745 132.0270766531138, -67.43745 251.796875 M-67.43745 -215.8671875 C-67.43745 -31.715301341121034, -67.43745 152.43658481775793, -67.43745 251.796875 M-67.43745 251.796875 C-67.43748699853349 251.796875, -67.43752399706698 251.796875, -67.43755 251.796875 M-67.43745 251.796875 C-67.43747569048952 251.796875, -67.43750138097904 251.796875, -67.43755 251.796875 M-67.43755 251.796875 C-67.43755 96.99155326724454, -67.43755 -57.81376846551092, -67.43755 -215.8671875 M-67.43755 251.796875 C-67.43755 72.42620937821997, -67.43755 -106.94445624356007, -67.43755 -215.8671875" stroke="#2563eb" stroke-width="1.3" fill="none" stroke-dasharray="0 0"/></g><g class="divider"><path d="M-20.203175 -215.8671875 L-20.203075 -215.8671875 L-20.203075 251.796875 L-20.203175 251.796875" stroke="none" stroke-width="0" fill="#dbeafe" fill-rule="evenodd"/><path d="M-20.203175 -215.8671875 C-20.20313620070282 -215.8671875, -20.203097401405635 -215.8671875, -20.203075 -215.8671875 M-20.203175 -215.8671875 C-20.20315051255962 -215.8671875, -20.20312602511924 -215.8671875, -20.203075 -215.8671875 M-20.203075 -215.8671875 C-20.203075 -97.04986130019513, -20.203075 21.767464899609735, -20.203075 251.796875 M-20.203075 -215.8671875 C-20.203075 -47.81465769173806, -20.203075 120.23787211652387, -20.203075 251.796875 M-20.203075 251.796875 C-20.203095709133787 251.796875, -20.20311641826758 251.796875, -20.203175 251.796875 M-20.203075 251.796875 C-20.20310672906967 251.796875, -20.203138458139346 251.796875, -20.203175 251.796875 M-20.203175 251.796875 C-20.203175 82.84731229553529, -20.203175 -86.10225040892942, -20.203175 -215.8671875 M-20.203175 251.796875 C-20.203175 149.41050056903998, -20.203175 47.024126138079964, -20.203175 -215.8671875" stroke="#2563eb" stroke-width="1.3" fill="none" stroke-dasharray="0 0"/></g><g class="divider"><path d="M-321.109375 -215.8672375 L-321.109375 -215.8671375 L321.109375 -215.8671375 L321.109375 -215.8672375" stroke="none" stroke-width="0" fill="#dbeafe" fill-rule="evenodd"/><path d="M-321.109375 -215.8672375 C-321.109375 -215.86720865645196, -321.109375 -215.86717981290394, -321.109375 -215.8671375 M-321.109375 -215.8672375 C-321.109375 -215.86720114843286, -321.109375 -215.8671647968657, -321.109375 -215.8671375 M-321.109375 -215.8671375 C-79.45041048553392 -215.8671375, 162.20855402893216 -215.8671375, 321.109375 -215.8671375 M-321.109375 -215.8671375 C-174.36978115812647 -215.8671375, -27.630187316252943 -215.8671375, 321.109375 -215.8671375 M321.109375 -215.8671375 C321.109375 -215.86717708799983, 321.109375 -215.86721667599969, 321.109375 -215.8672375 M321.109375 -215.8671375 C321.109375 -215.867168121771, 321.109375 -215.86719874354196, 321.109375 -215.8672375 M321.109375 -215.8672375 C149.15076411327988 -215.8672375, -22.807846773440247 -215.8672375, -321.109375 -215.8672375 M321.109375 -215.8672375 C159.66766820260762 -215.8672375, -1.7740385947847699 -215.8672375, -321.109375 -215.8672375" stroke="#2563eb" stroke-width="1.3" fill="none" stroke-dasharray="0 0"/></g></g></g></g></g><defs><filter id="my-svg-drop-shadow" height="130%" width="130%"><feDropShadow dx="4" dy="4" stdDeviation="0" flood-opacity="0.06" flood-color="#000000"/></filter></defs><defs><filter id="my-svg-drop-shadow-small" height="150%" width="150%"><feDropShadow dx="2" dy="2" stdDeviation="0" flood-opacity="0.06" flood-color="#000000"/></filter></defs><linearGradient id="my-svg-gradient" gradientUnits="objectBoundingBox" x1="0%" y1="0%" x2="100%" y2="0%"><stop offset="0%" stop-color="#2563eb" stop-opacity="1"/><stop offset="100%" stop-color="hsl(251.4285714286, 51.3043478261%, 85.4901960784%)" stop-opacity="1"/></linearGradient></svg>