<svg id="my-svg" width="100%" xmlns="http://www.w3.org/2000/svg" xmlns:xlink="http://www.w3.org/1999/xlink" class="erDiagram" style="max-width: 594.07px; background-color: white;" viewBox="0 0 594.0703125 798.9609375" role="graphics-document document" aria-roledescription="er"><style>#my-svg{font-family:Arial,sans-serif;font-size:16px;fill:#0f172a;}@keyframes edge-animation-frame{from{stroke-dashoffset:0;}}@keyframes dash{to{stroke-dashoffset:0;}}#my-svg .edge-animation-slow{stroke-dasharray:9,5!important;stroke-dashoffset:900;animation:dash 50s linear infinite;stroke-linecap:round;}#my-svg .edge-animation-fast{stroke-dasharray:9,5!important;stroke-dashoffset:900;animation:dash 20s linear infinite;stroke-linecap:round;}#my-svg .error-icon{fill:#ecfeff;}#my-svg .error-text{fill:#130100;stroke:#130100;}#my-svg .edge-thickness-normal{stroke-width:1px;}#my-svg .edge-thickness-thick{stroke-width:3.5px;}#my-svg .edge-pattern-solid{stroke-dasharray:0;}#my-svg .edge-thickness-invisible{stroke-width:0;fill:none;}#my-svg .edge-pattern-dashed{stroke-dasharray:3;}#my-svg .edge-pattern-dotted{stroke-dasharray:2;}#my-svg .marker{fill:#475569;stroke:#475569;}#my-svg .marker.cross{stroke:#475569;}#my-svg svg{font-family:Arial,sans-serif;font-size:16px;}#my-svg p{margin:0;}#my-svg .entityBox{fill:#dbeafe;stroke:#2563eb;}#my-svg .relationshipLabelBox{fill:#ecfeff;opacity:0.7;background-color:#ecfeff;}#my-svg .relationshipLabelBox rect{opacity:0.5;}#my-svg .labelBkg{background-color:rgba(236, 254, 255, 0.5);}#my-svg .edgeLabel{background-color:#ede9fe;}#my-svg .edgeLabel .label rect{fill:#ede9fe;}#my-svg .edgeLabel .label text{fill:#0f172a;}#my-svg .edgeLabel .label{fill:#2563eb;font-size:14px;}#my-svg .label{font-family:Arial,sans-serif;color:#0f172a;}#my-svg .edge-pattern-dashed{stroke-dasharray:8,8;}#my-svg .node rect,#my-svg .node circle,#my-svg .node ellipse,#my-svg .node polygon{fill:#dbeafe;stroke:#2563eb;stroke-width:1px;}#my-svg .relationshipLine{stroke:#475569;stroke-width:1px;fill:none;}#my-svg .marker{fill:none!important;stroke:#475569!important;stroke-width:1;}#my-svg [data-look=neo].labelBkg{background-color:rgba(236, 254, 255, 0.5);}#my-svg .node .neo-node{stroke:#2563eb;}#my-svg [data-look="neo"].node rect,#my-svg [data-look="neo"].cluster rect,#my-svg [data-look="neo"].node polygon{stroke:url(#my-svg-gradient);filter:drop-shadow( 1px 2px 2px rgba(185,185,185,1));}#my-svg [data-look="neo"].node path{stroke:url(#my-svg-gradient);stroke-width:1px;}#my-svg [data-look="neo"].node .outer-path{filter:drop-shadow( 1px 2px 2px rgba(185,185,185,1));}#my-svg [data-look="neo"].node .neo-line path{stroke:#2563eb;filter:none;}#my-svg [data-look="neo"].node circle{stroke:url(#my-svg-gradient);filter:drop-shadow( 1px 2px 2px rgba(185,185,185,1));}#my-svg [data-look="neo"].node circle .state-start{fill:#000000;}#my-svg [data-look="neo"].icon-shape .icon{fill:url(#my-svg-gradient);filter:drop-shadow( 1px 2px 2px rgba(185,185,185,1));}#my-svg [data-look="neo"].icon-shape .icon-neo path{stroke:url(#my-svg-gradient);filter:drop-shadow( 1px 2px 2px rgba(185,185,185,1));}#my-svg :root{--mermaid-font-family:Arial,sans-serif;}</style><g><defs><marker id="my-svg_er-onlyOneStart" class="marker onlyOne er" refX="0" refY="9" markerWidth="18" markerHeight="18" orient="auto"><path d="M9,0 L9,18 M15,0 L15,18"/></marker></defs><defs><marker id="my-svg_er-onlyOneEnd" class="marker onlyOne er" refX="18" refY="9" markerWidth="18" markerHeight="18" orient="auto"><path d="M3,0 L3,18 M9,0 L9,18"/></marker></defs><defs><marker id="my-svg_er-zeroOrOneStart" class="marker zeroOrOne er" refX="0" refY="9" markerWidth="30" markerHeight="18" orient="auto"><circle fill="white" cx="21" cy="9" r="6"/><path d="M9,0 L9,18"/></marker></defs><defs><marker id="my-svg_er-zeroOrOneEnd" class="marker zeroOrOne er" refX="30" refY="9" markerWidth="30" markerHeight="18" orient="auto"><circle fill="white" cx="9" cy="9" r="6"/><path d="M21,0 L21,18"/></marker></defs><defs><marker id="my-svg_er-oneOrMoreStart" class="marker oneOrMore er" refX="18" refY="18" markerWidth="45" markerHeight="36" orient="auto"><path d="M0,18 Q 18,0 36,18 Q 18,36 0,18 M42,9 L42,27"/></marker></defs><defs><marker id="my-svg_er-oneOrMoreEnd" class="marker oneOrMore er" refX="27" refY="18" markerWidth="45" markerHeight="36" orient="auto"><path d="M3,9 L3,27 M9,18 Q27,0 45,18 Q27,36 9,18"/></marker></defs><defs><marker id="my-svg_er-zeroOrMoreStart" class="marker zeroOrMore er" refX="18" refY="18" markerWidth="57" markerHeight="36" orient="auto"><circle fill="white" cx="48" cy="18" r="6"/><path d="M0,18 Q18,0 36,18 Q18,36 0,18"/></marker></defs><defs><marker id="my-svg_er-zeroOrMoreEnd" class="marker zeroOrMore er" refX="39" refY="18" markerWidth="57" markerHeight="36" orient="auto"><circle fill="white" cx="9" cy="18" r="6"/><path d="M21,18 Q39,0 57,18 Q39,36 21,18"/></marker></defs><g class="root"><g class="clusters"/><g class="edgePaths"><path d="M297.035,438.813L297.035,447.229C297.035,455.646,297.035,472.479,297.035,489.313C297.035,506.146,297.035,522.979,297.035,531.396L297.035,539.813" id="my-svg-id_entity-USERS-0_entity-SESSIONS-1_0" class="edge-thickness-normal edge-pattern-solid relationshipLine" style="undefined;;;undefined" data-edge="true" data-et="edge" data-id="id_entity-USERS-0_entity-SESSIONS-1_0" data-points="W3sieCI6Mjk3LjAzNTE1NjI1LCJ5Ijo0MzguODEyNX0seyJ4IjoyOTcuMDM1MTU2MjUsInkiOjQ4OS4zMTI1fSx7IngiOjI5Ny4wMzUxNTYyNSwieSI6NTM5LjgxMjV9XQ==" data-look="classic" marker-start="url(#my-svg_er-onlyOneStart)" marker-end="url(#my-svg_er-zeroOrMoreEnd)"/></g><g class="edgeLabels"><g class="edgeLabel" transform="translate(297.03515625, 489.3125)"><g class="label" data-id="id_entity-USERS-0_entity-SESSIONS-1_0" transform="translate(0, -9.000000476837158)"><g><rect class="background" style="" x="-20.6796875" y="0" width="41.359375" height="21"/><text y="-10.1" text-anchor="middle" style=""><tspan class="text-outer-tspan row" x="0" y="-0.1em" dy="1.1em" text-anchor="middle"><tspan font-style="normal" class="text-inner-tspan" font-weight="normal">owns</tspan></tspan></text></g></g></g></g><g class="nodes"><g class="node default" id="my-svg-entity-USERS-0" data-look="classic" transform="translate(297.03515625, 223.40625)"><g class="outer-path" style=""><path d="M-289.03515625 -215.40625 L289.03515625 -215.40625 L289.03515625 215.40625 L-289.03515625 215.40625" stroke="none" stroke-width="0" fill="#dbeafe"/><path d="M-289.03515625 -215.40625 C-113.9080020907077 -215.40625, 61.219152068584606 -215.40625, 289.03515625 -215.40625 M-289.03515625 -215.40625 C-120.50034396481655 -215.40625, 48.0344683203669 -215.40625, 289.03515625 -215.40625 M289.03515625 -215.40625 C289.03515625 -117.83638327310898, 289.03515625 -20.266516546217957, 289.03515625 215.40625 M289.03515625 -215.40625 C289.03515625 -121.6797928399893, 289.03515625 -27.953335679978608, 289.03515625 215.40625 M289.03515625 215.40625 C77.35385862321465 215.40625, -134.3274390035707 215.40625, -289.03515625 215.40625 M289.03515625 215.40625 C59.473072582166424 215.40625, -170.08901108566715 215.40625, -289.03515625 215.40625 M-289.03515625 215.40625 C-289.03515625 107.92950665229161, -289.03515625 0.4527633045832147, -289.03515625 -215.40625 M-289.03515625 215.40625 C-289.03515625 45.49396428770828, -289.03515625 -124.41832142458344, -289.03515625 -215.40625" stroke="#2563eb" stroke-width="1.3" fill="none" stroke-dasharray="0 0"/></g><g style="" class="row-rect-odd"><path d="M-289.03515625 -179.65625 L289.03515625 -179.65625 L289.03515625 -143.90625 L-289.03515625 -143.90625" stroke="none" stroke-width="0" fill="hsl(214.2857142857, 94.5945945946%, 100%)"/><path d="M-289.03515625 -179.65625 C-80.40322165171574 -179.65625, 128.22871294656852 -179.65625, 289.03515625 -179.65625 M-289.03515625 -179.65625 C-108.93341268453565 -179.65625, 71.16833088092869 -179.65625, 289.03515625 -179.65625 M289.03515625 -179.65625 C289.03515625 -167.07739609332938, 289.03515625 -154.49854218665874, 289.03515625 -143.90625 M289.03515625 -179.65625 C289.03515625 -171.98188623806004, 289.03515625 -164.3075224761201, 289.03515625 -143.90625 M289.03515625 -143.90625 C119.65914306141772 -143.90625, -49.716870127164555 -143.90625, -289.03515625 -143.90625 M289.03515625 -143.90625 C100.58737920399355 -143.90625, -87.8603978420129 -143.90625, -289.03515625 -143.90625 M-289.03515625 -143.90625 C-289.03515625 -155.2026261876545, -289.03515625 -166.49900237530898, -289.03515625 -179.65625 M-289.03515625 -143.90625 C-289.03515625 -151.21980209742753, -289.03515625 -158.53335419485506, -289.03515625 -179.65625" stroke="#2563eb" stroke-width="1.3" fill="none" stroke-dasharray="0 0"/></g><g style="" class="row-rect-even"><path d="M-289.03515625 -143.90625 L289.03515625 -143.90625 L289.03515625 -107.9765625 L-289.03515625 -107.9765625" stroke="none" stroke-width="0" fill="hsl(214.2857142857, 94.5945945946%, 97.7450980392%)"/><path d="M-289.03515625 -143.90625 C-74.87554373226214 -143.90625, 139.2840687854757 -143.90625, 289.03515625 -143.90625 M-289.03515625 -143.90625 C-83.5234659192889 -143.90625, 121.98822441142221 -143.90625, 289.03515625 -143.90625 M289.03515625 -143.90625 C289.03515625 -131.11559067990729, 289.03515625 -118.32493135981454, 289.03515625 -107.9765625 M289.03515625 -143.90625 C289.03515625 -130.20874555229847, 289.03515625 -116.51124110459693, 289.03515625 -107.9765625 M289.03515625 -107.9765625 C167.40353614969536 -107.9765625, 45.77191604939071 -107.9765625, -289.03515625 -107.9765625 M289.03515625 -107.9765625 C72.2197986578806 -107.9765625, -144.5955589342388 -107.9765625, -289.03515625 -107.9765625 M-289.03515625 -107.9765625 C-289.03515625 -119.20136435472327, -289.03515625 -130.42616620944654, -289.03515625 -143.90625 M-289.03515625 -107.9765625 C-289.03515625 -121.47979487384904, -289.03515625 -134.9830272476981, -289.03515625 -143.90625" stroke="#2563eb" stroke-width="1.3" fill="none" stroke-dasharray="0 0"/></g><g style="" class="row-rect-odd"><path d="M-289.03515625 -107.9765625 L289.03515625 -107.9765625 L289.03515625 -72.2265625 L-289.03515625 -72.2265625" stroke="none" stroke-width="0" fill="hsl(214.2857142857, 94.5945945946%, 100%)"/><path d="M-289.03515625 -107.9765625 C-81.71042771952318 -107.9765625, 125.61430081095364 -107.9765625, 289.03515625 -107.9765625 M-289.03515625 -107.9765625 C-162.12693430180175 -107.9765625, -35.21871235360351 -107.9765625, 289.03515625 -107.9765625 M289.03515625 -107.9765625 C289.03515625 -96.47263171521416, 289.03515625 -84.96870093042831, 289.03515625 -72.2265625 M289.03515625 -107.9765625 C289.03515625 -95.65918716487829, 289.03515625 -83.34181182975658, 289.03515625 -72.2265625 M289.03515625 -72.2265625 C101.54101926459975 -72.2265625, -85.95311772080049 -72.2265625, -289.03515625 -72.2265625 M289.03515625 -72.2265625 C162.82675680390145 -72.2265625, 36.61835735780292 -72.2265625, -289.03515625 -72.2265625 M-289.03515625 -72.2265625 C-289.03515625 -80.99756113084705, -289.03515625 -89.76855976169409, -289.03515625 -107.9765625 M-289.03515625 -72.2265625 C-289.03515625 -84.78783444404053, -289.03515625 -97.34910638808105, -289.03515625 -107.9765625" stroke="#2563eb" stroke-width="1.3" fill="none" stroke-dasharray="0 0"/></g><g style="" class="row-rect-even"><path d="M-289.03515625 -72.2265625 L289.03515625 -72.2265625 L289.03515625 -36.296875 L-289.03515625 -36.296875" stroke="none" stroke-width="0" fill="hsl(214.2857142857, 94.5945945946%, 97.7450980392%)"/><path d="M-289.03515625 -72.2265625 C-63.716333205017605 -72.2265625, 161.6024898399648 -72.2265625, 289.03515625 -72.2265625 M-289.03515625 -72.2265625 C-93.1329041153272 -72.2265625, 102.76934801934561 -72.2265625, 289.03515625 -72.2265625 M289.03515625 -72.2265625 C289.03515625 -59.02595982375156, 289.03515625 -45.82535714750313, 289.03515625 -36.296875 M289.03515625 -72.2265625 C289.03515625 -64.6864203107906, 289.03515625 -57.14627812158119, 289.03515625 -36.296875 M289.03515625 -36.296875 C121.99959627318589 -36.296875, -45.03596370362823 -36.296875, -289.03515625 -36.296875 M289.03515625 -36.296875 C144.14976917048548 -36.296875, -0.7356179090290311 -36.296875, -289.03515625 -36.296875 M-289.03515625 -36.296875 C-289.03515625 -43.504798908673536, -289.03515625 -50.71272281734707, -289.03515625 -72.2265625 M-289.03515625 -36.296875 C-289.03515625 -47.971924294204655, -289.03515625 -59.6469735884093, -289.03515625 -72.2265625" stroke="#2563eb" stroke-width="1.3" fill="none" stroke-dasharray="0 0"/></g><g style="" class="row-rect-odd"><path d="M-289.03515625 -36.296875 L289.03515625 -36.296875 L289.03515625 -0.3671875 L-289.03515625 -0.3671875" stroke="none" stroke-width="0" fill="hsl(214.2857142857, 94.5945945946%, 100%)"/><path d="M-289.03515625 -36.296875 C-71.66292158170523 -36.296875, 145.70931308658953 -36.296875, 289.03515625 -36.296875 M-289.03515625 -36.296875 C-158.59919010973573 -36.296875, -28.16322396947146 -36.296875, 289.03515625 -36.296875 M289.03515625 -36.296875 C289.03515625 -29.009715511703067, 289.03515625 -21.722556023406135, 289.03515625 -0.3671875 M289.03515625 -36.296875 C289.03515625 -25.7401094563879, 289.03515625 -15.183343912775793, 289.03515625 -0.3671875 M289.03515625 -0.3671875 C113.8472571452269 -0.3671875, -61.34064195954619 -0.3671875, -289.03515625 -0.3671875 M289.03515625 -0.3671875 C172.71142648163237 -0.3671875, 56.38769671326472 -0.3671875, -289.03515625 -0.3671875 M-289.03515625 -0.3671875 C-289.03515625 -10.254244413695107, -289.03515625 -20.141301327390213, -289.03515625 -36.296875 M-289.03515625 -0.3671875 C-289.03515625 -10.021536345914388, -289.03515625 -19.675885191828776, -289.03515625 -36.296875" stroke="#2563eb" stroke-width="1.3" fill="none" stroke-dasharray="0 0"/></g><g style="" class="row-rect-even"><path d="M-289.03515625 -0.3671875 L289.03515625 -0.3671875 L289.03515625 35.3828125 L-289.03515625 35.3828125" stroke="none" stroke-width="0" fill="hsl(214.2857142857, 94.5945945946%, 97.7450980392%)"/><path d="M-289.03515625 -0.3671875 C-155.7822017468924 -0.3671875, -22.529247243784823 -0.3671875, 289.03515625 -0.3671875 M-289.03515625 -0.3671875 C-131.853195496437 -0.3671875, 25.32876525712601 -0.3671875, 289.03515625 -0.3671875 M289.03515625 -0.3671875 C289.03515625 11.455189953160879, 289.03515625 23.277567406321758, 289.03515625 35.3828125 M289.03515625 -0.3671875 C289.03515625 13.813535473075177, 289.03515625 27.994258446150354, 289.03515625 35.3828125 M289.03515625 35.3828125 C64.34022608990034 35.3828125, -160.35470407019932 35.3828125, -289.03515625 35.3828125 M289.03515625 35.3828125 C119.5903236464315 35.3828125, -49.854508957137 35.3828125, -289.03515625 35.3828125 M-289.03515625 35.3828125 C-289.03515625 23.070144852289282, -289.03515625 10.757477204578564, -289.03515625 -0.3671875 M-289.03515625 35.3828125 C-289.03515625 27.71765984598697, -289.03515625 20.052507191973937, -289.03515625 -0.3671875" stroke="#2563eb" stroke-width="1.3" fill="none" stroke-dasharray="0 0"/></g><g style="" class="row-rect-odd"><path d="M-289.03515625 35.3828125 L289.03515625 35.3828125 L289.03515625 71.3125 L-289.03515625 71.3125" stroke="none" stroke-width="0" fill="hsl(214.2857142857, 94.5945945946%, 100%)"/><path d="M-289.03515625 35.3828125 C-98.00577704942108 35.3828125, 93.02360215115783 35.3828125, 289.03515625 35.3828125 M-289.03515625 35.3828125 C-131.08879450498566 35.3828125, 26.857567240028686 35.3828125, 289.03515625 35.3828125 M289.03515625 35.3828125 C289.03515625 43.37740381289653, 289.03515625 51.37199512579306, 289.03515625 71.3125 M289.03515625 35.3828125 C289.03515625 45.431586393428724, 289.03515625 55.48036028685745, 289.03515625 71.3125 M289.03515625 71.3125 C131.4487683751425 71.3125, -26.137619499715015 71.3125, -289.03515625 71.3125 M289.03515625 71.3125 C117.33756103615625 71.3125, -54.36003417768751 71.3125, -289.03515625 71.3125 M-289.03515625 71.3125 C-289.03515625 58.78458634210672, -289.03515625 46.25667268421344, -289.03515625 35.3828125 M-289.03515625 71.3125 C-289.03515625 60.41414824954097, -289.03515625 49.515796499081944, -289.03515625 35.3828125" stroke="#2563eb" stroke-width="1.3" fill="none" stroke-dasharray="0 0"/></g><g style="" class="row-rect-even"><path d="M-289.03515625 71.3125 L289.03515625 71.3125 L289.03515625 107.4296875 L-289.03515625 107.4296875" stroke="none" stroke-width="0" fill="hsl(214.2857142857, 94.5945945946%, 97.7450980392%)"/><path d="M-289.03515625 71.3125 C-116.96603260345225 71.3125, 55.1030910430955 71.3125, 289.03515625 71.3125 M-289.03515625 71.3125 C-70.85376507134458 71.3125, 147.32762610731083 71.3125, 289.03515625 71.3125 M289.03515625 71.3125 C289.03515625 81.92302116929604, 289.03515625 92.53354233859208, 289.03515625 107.4296875 M289.03515625 71.3125 C289.03515625 79.41702620284742, 289.03515625 87.52155240569485, 289.03515625 107.4296875 M289.03515625 107.4296875 C133.26677793086375 107.4296875, -22.501600388272493 107.4296875, -289.03515625 107.4296875 M289.03515625 107.4296875 C68.94210702245041 107.4296875, -151.15094220509917 107.4296875, -289.03515625 107.4296875 M-289.03515625 107.4296875 C-289.03515625 100.0982092303948, -289.03515625 92.7667309607896, -289.03515625 71.3125 M-289.03515625 107.4296875 C-289.03515625 95.21619628888061, -289.03515625 83.00270507776122, -289.03515625 71.3125" stroke="#2563eb" stroke-width="1.3" fill="none" stroke-dasharray="0 0"/></g><g style="" class="row-rect-odd"><path d="M-289.03515625 107.4296875 L289.03515625 107.4296875 L289.03515625 143.546875 L-289.03515625 143.546875" stroke="none" stroke-width="0" fill="hsl(214.2857142857, 94.5945945946%, 100%)"/><path d="M-289.03515625 107.4296875 C-119.98173300459919 107.4296875, 49.071690240801615 107.4296875, 289.03515625 107.4296875 M-289.03515625 107.4296875 C-142.82227804860807 107.4296875, 3.390600152783861 107.4296875, 289.03515625 107.4296875 M289.03515625 107.4296875 C289.03515625 117.81345492795914, 289.03515625 128.19722235591829, 289.03515625 143.546875 M289.03515625 107.4296875 C289.03515625 117.39538022548524, 289.03515625 127.36107295097047, 289.03515625 143.546875 M289.03515625 143.546875 C125.01223434507264 143.546875, -39.010687559854716 143.546875, -289.03515625 143.546875 M289.03515625 143.546875 C110.58280090092259 143.546875, -67.86955444815482 143.546875, -289.03515625 143.546875 M-289.03515625 143.546875 C-289.03515625 133.72877883681403, -289.03515625 123.91068267362809, -289.03515625 107.4296875 M-289.03515625 143.546875 C-289.03515625 133.45061939172365, -289.03515625 123.35436378344733, -289.03515625 107.4296875" stroke="#2563eb" stroke-width="1.3" fill="none" stroke-dasharray="0 0"/></g><g style="" class="row-rect-even"><path d="M-289.03515625 143.546875 L289.03515625 143.546875 L289.03515625 179.4765625 L-289.03515625 179.4765625" stroke="none" stroke-width="0" fill="hsl(214.2857142857, 94.5945945946%, 97.7450980392%)"/><path d="M-289.03515625 143.546875 C-151.72562583885045 143.546875, -14.416095427700895 143.546875, 289.03515625 143.546875 M-289.03515625 143.546875 C-150.3213027958397 143.546875, -11.607449341679398 143.546875, 289.03515625 143.546875 M289.03515625 143.546875 C289.03515625 155.85666656843844, 289.03515625 168.16645813687686, 289.03515625 179.4765625 M289.03515625 143.546875 C289.03515625 152.43974065133358, 289.03515625 161.33260630266716, 289.03515625 179.4765625 M289.03515625 179.4765625 C157.89472086264854 179.4765625, 26.75428547529708 179.4765625, -289.03515625 179.4765625 M289.03515625 179.4765625 C110.99523765128268 179.4765625, -67.04468094743464 179.4765625, -289.03515625 179.4765625 M-289.03515625 179.4765625 C-289.03515625 169.28152595877484, -289.03515625 159.08648941754967, -289.03515625 143.546875 M-289.03515625 179.4765625 C-289.03515625 170.6481028963866, -289.03515625 161.8196432927732, -289.03515625 143.546875" stroke="#2563eb" stroke-width="1.3" fill="none" stroke-dasharray="0 0"/></g><g style="" class="row-rect-odd"><path d="M-289.03515625 179.4765625 L289.03515625 179.4765625 L289.03515625 215.40625 L-289.03515625 215.40625" stroke="none" stroke-width="0" fill="hsl(214.2857142857, 94.5945945946%, 100%)"/><path d="M-289.03515625 179.4765625 C-111.68250418248132 179.4765625, 65.67014788503735 179.4765625, 289.03515625 179.4765625 M-289.03515625 179.4765625 C-70.7640034264034 179.4765625, 147.5071493971932 179.4765625, 289.03515625 179.4765625 M289.03515625 179.4765625 C289.03515625 189.2087617270723, 289.03515625 198.9409609541446, 289.03515625 215.40625 M289.03515625 179.4765625 C289.03515625 187.03140993385827, 289.03515625 194.5862573677165, 289.03515625 215.40625 M289.03515625 215.40625 C122.50424899030907 215.40625, -44.02665826938187 215.40625, -289.03515625 215.40625 M289.03515625 215.40625 C147.4827765945675 215.40625, 5.930396939134994 215.40625, -289.03515625 215.40625 M-289.03515625 215.40625 C-289.03515625 201.62681409804622, -289.03515625 187.84737819609242, -289.03515625 179.4765625 M-289.03515625 215.40625 C-289.03515625 204.39000150556495, -289.03515625 193.37375301112988, -289.03515625 179.4765625" stroke="#2563eb" stroke-width="1.3" fill="none" stroke-dasharray="0 0"/></g><g class="label name" transform="translate(-27.5625, -206.03125)" style=""><g><rect class="background" style="stroke: none"/></g><text y="-10.1" style=""><tspan class="text-outer-tspan row" x="0" y="-0.1em" dy="1.1em"><tspan font-style="normal" class="text-inner-tspan" font-weight="normal">USERS</tspan></tspan></text></g><g class="label attribute-type" transform="translate(-276.53515625, -170.28125)" style=""><g><rect class="background" style="stroke: none"/></g><text y="-10.1" style=""><tspan class="text-outer-tspan row" x="0" y="-0.1em" dy="1.1em"><tspan font-style="normal" class="text-inner-tspan" font-weight="normal">uuid</tspan></tspan></text></g><g class="label attribute-name" transform="translate(-165.28515625, -170.28125)" style=""><g><rect class="background" style="stroke: none"/></g><text y="-10.1" style=""><tspan class="text-outer-tspan row" x="0" y="-0.1em" dy="1.1em"><tspan font-style="normal" class="text-inner-tspan" font-weight="normal">id</tspan></tspan></text></g><g class="label attribute-keys" transform="translate(-12.52734375, -170.28125)" style=""><g><rect class="background" style="stroke: none"/></g><text y="-10.1" style=""><tspan class="text-outer-tspan row" x="0" y="-0.1em" dy="1.1em"><tspan font-style="normal" class="text-inner-tspan" font-weight="normal">PK</tspan></tspan></text></g><g class="label attribute-comment" transform="translate(34.70703125, -170.28125)" style=""><g><rect class="background" style="stroke: none"/></g><text y="-10.1" style=""><tspan class="text-outer-tspan row" x="0" y="-0.1em" dy="1.1em"/></text></g><g class="label attribute-type" transform="translate(-276.53515625, -134.53125)" style=""><g><rect class="background" style="stroke: none"/></g><text y="-10.1" style=""><tspan class="text-outer-tspan row" x="0" y="-0.1em" dy="1.1em"><tspan font-style="normal" class="text-inner-tspan" font-weight="normal">varchar</tspan></tspan></text></g><g class="label attribute-name" transform="translate(-165.28515625, -134.53125)" style=""><g><rect class="background" style="stroke: none"/></g><text y="-10.1" style=""><tspan class="text-outer-tspan row" x="0" y="-0.1em" dy="1.1em"><tspan font-style="normal" class="text-inner-tspan" font-weight="normal">full_name</tspan></tspan></text></g><g class="label attribute-keys" transform="translate(-12.52734375, -134.53125)" style=""><g><rect class="background" style="stroke: none"/></g><text y="-10.1" style=""><tspan class="text-outer-tspan row" x="0" y="-0.1em" dy="1.1em"/></text></g><g class="label attribute-comment" transform="translate(34.70703125, -134.53125)" style=""><g><rect class="background" style="stroke: none"/></g><text y="-10.1" style=""><tspan class="text-outer-tspan row" x="0" y="-0.1em" dy="1.1em"><tspan font-style="normal" class="text-inner-tspan" font-weight="normal">NOT</tspan><tspan font-style="normal" class="text-inner-tspan" font-weight="normal"> NULL</tspan></tspan></text></g><g class="label attribute-type" transform="translate(-276.53515625, -98.6015625)" style=""><g><rect class="background" style="stroke: none"/></g><text y="-10.1" style=""><tspan class="text-outer-tspan row" x="0" y="-0.1em" dy="1.1em"><tspan font-style="normal" class="text-inner-tspan" font-weight="normal">varchar</tspan></tspan></text></g><g class="label attribute-name" transform="translate(-165.28515625, -98.6015625)" style=""><g><rect class="background" style="stroke: none"/></g><text y="-10.1" style=""><tspan class="text-outer-tspan row" x="0" y="-0.1em" dy="1.1em"><tspan font-style="normal" class="text-inner-tspan" font-weight="normal">email</tspan></tspan></text></g><g class="label attribute-keys" transform="translate(-12.52734375, -98.6015625)" style=""><g><rect class="background" style="stroke: none"/></g><text y="-10.1" style=""><tspan class="text-outer-tspan row" x="0" y="-0.1em" dy="1.1em"><tspan font-style="normal" class="text-inner-tspan" font-weight="normal">UK</tspan></tspan></text></g><g class="label attribute-comment" transform="translate(34.70703125, -98.6015625)" style=""><g><rect class="background" style="stroke: none"/></g><text y="-10.1" style=""><tspan class="text-outer-tspan row" x="0" y="-0.1em" dy="1.1em"><tspan font-style="normal" class="text-inner-tspan" font-weight="normal">normalized;</tspan><tspan font-style="normal" class="text-inner-tspan" font-weight="normal"> NOT</tspan><tspan font-style="normal" class="text-inner-tspan" font-weight="normal"> NULL</tspan></tspan></text></g><g class="label attribute-type" transform="translate(-276.53515625, -62.8515625)" style=""><g><rect class="background" style="stroke: none"/></g><text y="-10.1" style=""><tspan class="text-outer-tspan row" x="0" y="-0.1em" dy="1.1em"><tspan font-style="normal" class="text-inner-tspan" font-weight="normal">varchar</tspan></tspan></text></g><g class="label attribute-name" transform="translate(-165.28515625, -62.8515625)" style=""><g><rect class="background" style="stroke: none"/></g><text y="-10.1" style=""><tspan class="text-outer-tspan row" x="0" y="-0.1em" dy="1.1em"><tspan font-style="normal" class="text-inner-tspan" font-weight="normal">password_hash</tspan></tspan></text></g><g class="label attribute-keys" transform="translate(-12.52734375, -62.8515625)" style=""><g><rect class="background" style="stroke: none"/></g><text y="-10.1" style=""><tspan class="text-outer-tspan row" x="0" y="-0.1em" dy="1.1em"/></text></g><g class="label attribute-comment" transform="translate(34.70703125, -62.8515625)" style=""><g><rect class="background" style="stroke: none"/></g><text y="-10.1" style=""><tspan class="text-outer-tspan row" x="0" y="-0.1em" dy="1.1em"><tspan font-style="normal" class="text-inner-tspan" font-weight="normal">NOT</tspan><tspan font-style="normal" class="text-inner-tspan" font-weight="normal"> NULL;</tspan><tspan font-style="normal" class="text-inner-tspan" font-weight="normal"> never</tspan><tspan font-style="normal" class="text-inner-tspan" font-weight="normal"> returned</tspan></tspan></text></g><g class="label attribute-type" transform="translate(-276.53515625, -26.921875)" style=""><g><rect class="background" style="stroke: none"/></g><text y="-10.1" style=""><tspan class="text-outer-tspan row" x="0" y="-0.1em" dy="1.1em"><tspan font-style="normal" class="text-inner-tspan" font-weight="normal">varchar</tspan></tspan></text></g><g class="label attribute-name" transform="translate(-165.28515625, -26.921875)" style=""><g><rect class="background" style="stroke: none"/></g><text y="-10.1" style=""><tspan class="text-outer-tspan row" x="0" y="-0.1em" dy="1.1em"><tspan font-style="normal" class="text-inner-tspan" font-weight="normal">phone</tspan></tspan></text></g><g class="label attribute-keys" transform="translate(-12.52734375, -26.921875)" style=""><g><rect class="background" style="stroke: none"/></g><text y="-10.1" style=""><tspan class="text-outer-tspan row" x="0" y="-0.1em" dy="1.1em"/></text></g><g class="label attribute-comment" transform="translate(34.70703125, -26.921875)" style=""><g><rect class="background" style="stroke: none"/></g><text y="-10.1" style=""><tspan class="text-outer-tspan row" x="0" y="-0.1em" dy="1.1em"><tspan font-style="normal" class="text-inner-tspan" font-weight="normal">NOT</tspan><tspan font-style="normal" class="text-inner-tspan" font-weight="normal"> NULL</tspan></tspan></text></g><g class="label attribute-type" transform="translate(-276.53515625, 9.0078125)" style=""><g><rect class="background" style="stroke: none"/></g><text y="-10.1" style=""><tspan class="text-outer-tspan row" x="0" y="-0.1em" dy="1.1em"><tspan font-style="normal" class="text-inner-tspan" font-weight="normal">varchar</tspan></tspan></text></g><g class="label attribute-name" transform="translate(-165.28515625, 9.0078125)" style=""><g><rect class="background" style="stroke: none"/></g><text y="-10.1" style=""><tspan class="text-outer-tspan row" x="0" y="-0.1em" dy="1.1em"><tspan font-style="normal" class="text-inner-tspan" font-weight="normal">role</tspan></tspan></text></g><g class="label attribute-keys" transform="translate(-12.52734375, 9.0078125)" style=""><g><rect class="background" style="stroke: none"/></g><text y="-10.1" style=""><tspan class="text-outer-tspan row" x="0" y="-0.1em" dy="1.1em"/></text></g><g class="label attribute-comment" transform="translate(34.70703125, 9.0078125)" style=""><g><rect class="background" style="stroke: none"/></g><text y="-10.1" style=""><tspan class="text-outer-tspan row" x="0" y="-0.1em" dy="1.1em"><tspan font-style="normal" class="text-inner-tspan" font-weight="normal">CHECK</tspan><tspan font-style="normal" class="text-inner-tspan" font-weight="normal"> DRIVER</tspan><tspan font-style="normal" class="text-inner-tspan" font-weight="normal"> OWNER</tspan><tspan font-style="normal" class="text-inner-tspan" font-weight="normal"> ADMIN</tspan></tspan></text></g><g class="label attribute-type" transform="translate(-276.53515625, 44.7578125)" style=""><g><rect class="background" style="stroke: none"/></g><text y="-10.1" style=""><tspan class="text-outer-tspan row" x="0" y="-0.1em" dy="1.1em"><tspan font-style="normal" class="text-inner-tspan" font-weight="normal">varchar</tspan></tspan></text></g><g class="label attribute-name" transform="translate(-165.28515625, 44.7578125)" style=""><g><rect class="background" style="stroke: none"/></g><text y="-10.1" style=""><tspan class="text-outer-tspan row" x="0" y="-0.1em" dy="1.1em"><tspan font-style="normal" class="text-inner-tspan" font-weight="normal">plate_number</tspan></tspan></text></g><g class="label attribute-keys" transform="translate(-12.52734375, 44.7578125)" style=""><g><rect class="background" style="stroke: none"/></g><text y="-10.1" style=""><tspan class="text-outer-tspan row" x="0" y="-0.1em" dy="1.1em"/></text></g><g class="label attribute-comment" transform="translate(34.70703125, 44.7578125)" style=""><g><rect class="background" style="stroke: none"/></g><text y="-10.1" style=""><tspan class="text-outer-tspan row" x="0" y="-0.1em" dy="1.1em"><tspan font-style="normal" class="text-inner-tspan" font-weight="normal">nullable</tspan></tspan></text></g><g class="label attribute-type" transform="translate(-276.53515625, 80.6875)" style=""><g><rect class="background" style="stroke: none"/></g><text y="-10.1" style=""><tspan class="text-outer-tspan row" x="0" y="-0.1em" dy="1.1em"><tspan font-style="normal" class="text-inner-tspan" font-weight="normal">varchar</tspan></tspan></text></g><g class="label attribute-name" transform="translate(-165.28515625, 80.6875)" style=""><g><rect class="background" style="stroke: none"/></g><text y="-10.1" style=""><tspan class="text-outer-tspan row" x="0" y="-0.1em" dy="1.1em"><tspan font-style="normal" class="text-inner-tspan" font-weight="normal">owner_type</tspan></tspan></text></g><g class="label attribute-keys" transform="translate(-12.52734375, 80.6875)" style=""><g><rect class="background" style="stroke: none"/></g><text y="-10.1" style=""><tspan class="text-outer-tspan row" x="0" y="-0.1em" dy="1.1em"/></text></g><g class="label attribute-comment" transform="translate(34.70703125, 80.6875)" style=""><g><rect class="background" style="stroke: none"/></g><text y="-10.1" style=""><tspan class="text-outer-tspan row" x="0" y="-0.1em" dy="1.1em"><tspan font-style="normal" class="text-inner-tspan" font-weight="normal">nullable</tspan></tspan></text></g><g class="label attribute-type" transform="translate(-276.53515625, 116.8046875)" style=""><g><rect class="background" style="stroke: none"/></g><text y="-10.1" style=""><tspan class="text-outer-tspan row" x="0" y="-0.1em" dy="1.1em"><tspan font-style="normal" class="text-inner-tspan" font-weight="normal">varchar</tspan></tspan></text></g><g class="label attribute-name" transform="translate(-165.28515625, 116.8046875)" style=""><g><rect class="background" style="stroke: none"/></g><text y="-10.1" style=""><tspan class="text-outer-tspan row" x="0" y="-0.1em" dy="1.1em"><tspan font-style="normal" class="text-inner-tspan" font-weight="normal">bank_account_ref</tspan></tspan></text></g><g class="label attribute-keys" transform="translate(-12.52734375, 116.8046875)" style=""><g><rect class="background" style="stroke: none"/></g><text y="-10.1" style=""><tspan class="text-outer-tspan row" x="0" y="-0.1em" dy="1.1em"/></text></g><g class="label attribute-comment" transform="translate(34.70703125, 116.8046875)" style=""><g><rect class="background" style="stroke: none"/></g><text y="-10.1" style=""><tspan class="text-outer-tspan row" x="0" y="-0.1em" dy="1.1em"><tspan font-style="normal" class="text-inner-tspan" font-weight="normal">encrypted</tspan><tspan font-style="normal" class="text-inner-tspan" font-weight="normal"> reference</tspan></tspan></text></g><g class="label attribute-type" transform="translate(-276.53515625, 152.921875)" style=""><g><rect class="background" style="stroke: none"/></g><text y="-10.1" style=""><tspan class="text-outer-tspan row" x="0" y="-0.1em" dy="1.1em"><tspan font-style="normal" class="text-inner-tspan" font-weight="normal">timestamptz</tspan></tspan></text></g><g class="label attribute-name" transform="translate(-165.28515625, 152.921875)" style=""><g><rect class="background" style="stroke: none"/></g><text y="-10.1" style=""><tspan class="text-outer-tspan row" x="0" y="-0.1em" dy="1.1em"><tspan font-style="normal" class="text-inner-tspan" font-weight="normal">created_at</tspan></tspan></text></g><g class="label attribute-keys" transform="translate(-12.52734375, 152.921875)" style=""><g><rect class="background" style="stroke: none"/></g><text y="-10.1" style=""><tspan class="text-outer-tspan row" x="0" y="-0.1em" dy="1.1em"/></text></g><g class="label attribute-comment" transform="translate(34.70703125, 152.921875)" style=""><g><rect class="background" style="stroke: none"/></g><text y="-10.1" style=""><tspan class="text-outer-tspan row" x="0" y="-0.1em" dy="1.1em"><tspan font-style="normal" class="text-inner-tspan" font-weight="normal">NOT</tspan><tspan font-style="normal" class="text-inner-tspan" font-weight="normal"> NULL</tspan></tspan></text></g><g class="label attribute-type" transform="translate(-276.53515625, 188.8515625)" style=""><g><rect class="background" style="stroke: none"/></g><text y="-10.1" style=""><tspan class="text-outer-tspan row" x="0" y="-0.1em" dy="1.1em"><tspan font-style="normal" class="text-inner-tspan" font-weight="normal">timestamptz</tspan></tspan></text></g><g class="label attribute-name" transform="translate(-165.28515625, 188.8515625)" style=""><g><rect class="background" style="stroke: none"/></g><text y="-10.1" style=""><tspan class="text-outer-tspan row" x="0" y="-0.1em" dy="1.1em"><tspan font-style="normal" class="text-inner-tspan" font-weight="normal">updated_at</tspan></tspan></text></g><g class="label attribute-keys" transform="translate(-12.52734375, 188.8515625)" style=""><g><rect class="background" style="stroke: none"/></g><text y="-10.1" style=""><tspan class="text-outer-tspan row" x="0" y="-0.1em" dy="1.1em"/></text></g><g class="label attribute-comment" transform="translate(34.70703125, 188.8515625)" style=""><g><rect class="background" style="stroke: none"/></g><text y="-10.1" style=""><tspan class="text-outer-tspan row" x="0" y="-0.1em" dy="1.1em"><tspan font-style="normal" class="text-inner-tspan" font-weight="normal">NOT</tspan><tspan font-style="normal" class="text-inner-tspan" font-weight="normal"> NULL</tspan></tspan></text></g><g class="divider"><path d="M-289.03515625 -179.6563 L-289.03515625 -179.6562 L289.03515625 -179.6562 L289.03515625 -179.6563" stroke="none" stroke-width="0" fill="#dbeafe" fill-rule="evenodd"/><path d="M-289.03515625 -179.6563 C-289.03515625 -179.65626256769684, -289.03515625 -179.6562251353937, -289.03515625 -179.6562 M-289.03515625 -179.6563 C-289.03515625 -179.65627732441303, -289.03515625 -179.6562546488261, -289.03515625 -179.6562 M-289.03515625 -179.6562 C-137.2165981836126 -179.6562, 14.601959882774793 -179.6562, 289.03515625 -179.6562 M-289.03515625 -179.6562 C-148.7184651354645 -179.6562, -8.401774020928997 -179.6562, 289.03515625 -179.6562 M289.03515625 -179.6562 C289.03515625 -179.65622744054042, 289.03515625 -179.65625488108083, 289.03515625 -179.6563 M289.03515625 -179.6562 C289.03515625 -179.65623711949368, 289.03515625 -179.65627423898738, 289.03515625 -179.6563 M289.03515625 -179.6563 C95.29545465768939 -179.6563, -98.44424693462122 -179.6563, -289.03515625 -179.6563 M289.03515625 -179.6563 C118.17206569468888 -179.6563, -52.691024860622235 -179.6563, -289.03515625 -179.6563" stroke="#2563eb" stroke-width="1.3" fill="none" stroke-dasharray="0 0"/></g><g class="divider"><path d="M-177.78520625 -179.65625 L-177.78510625 -179.65625 L-177.78510625 215.40625 L-177.78520625 215.40625" stroke="none" stroke-width="0" fill="#dbeafe" fill-rule="evenodd"/><path d="M-177.78520625 -179.65625 C-177.78517487741976 -179.65625, -177.78514350483957 -179.65625, -177.78510625 -179.65625 M-177.78520625 -179.65625 C-177.78518280956345 -179.65625, -177.78515936912692 -179.65625, -177.78510625 -179.65625 M-177.78510625 -179.65625 C-177.78510625 -23.243931410298956, -177.78510625 133.1683871794021, -177.78510625 215.40625 M-177.78510625 -179.65625 C-177.78510625 -97.58774025131507, -177.78510625 -15.519230502630137, -177.78510625 215.40625 M-177.78510625 215.40625 C-177.7851364478827 215.40625, -177.7851666457654 215.40625, -177.78520625 215.40625 M-177.78510625 215.40625 C-177.78512714267615 215.40625, -177.78514803535225 215.40625, -177.78520625 215.40625 M-177.78520625 215.40625 C-177.78520625 60.15609179395892, -177.78520625 -95.09406641208216, -177.78520625 -179.65625 M-177.78520625 215.40625 C-177.78520625 74.20312000966555, -177.78520625 -67.00000998066889, -177.78520625 -179.65625" stroke="#2563eb" stroke-width="1.3" fill="none" stroke-dasharray="0 0"/></g><g class="divider"><path d="M-25.02739375 -179.65625 L-25.02729375 -179.65625 L-25.02729375 215.40625 L-25.02739375 215.40625" stroke="none" stroke-width="0" fill="#dbeafe" fill-rule="evenodd"/><path d="M-25.02739375 -179.65625 C-25.027354453272693 -179.65625, -25.02731515654538 -179.65625, -25.02729375 -179.65625 M-25.02739375 -179.65625 C-25.02736457893123 -179.65625, -25.027335407862463 -179.65625, -25.02729375 -179.65625 M-25.02729375 -179.65625 C-25.02729375 -95.19123176458041, -25.02729375 -10.726213529160816, -25.02729375 215.40625 M-25.02729375 -179.65625 C-25.02729375 -56.39691581161182, -25.02729375 66.86241837677636, -25.02729375 215.40625 M-25.02729375 215.40625 C-25.027332234553818 215.40625, -25.027370719107633 215.40625, -25.02739375 215.40625 M-25.02729375 215.40625 C-25.027324867732826 215.40625, -25.027355985465658 215.40625, -25.02739375 215.40625 M-25.02739375 215.40625 C-25.02739375 110.87081386608595, -25.02739375 6.3353777321719065, -25.02739375 -179.65625 M-25.02739375 215.40625 C-25.02739375 65.71862064572349, -25.02739375 -83.96900870855302, -25.02739375 -179.65625" stroke="#2563eb" stroke-width="1.3" fill="none" stroke-dasharray="0 0"/></g><g class="divider"><path d="M22.20698125 -179.65625 L22.20708125 -179.65625 L22.20708125 215.40625 L22.20698125 215.40625" stroke="none" stroke-width="0" fill="#dbeafe" fill-rule="evenodd"/><path d="M22.20698125 -179.65625 C22.207002329801252 -179.65625, 22.20702340960251 -179.65625, 22.20708125 -179.65625 M22.20698125 -179.65625 C22.207013297022808 -179.65625, 22.20704534404562 -179.65625, 22.20708125 -179.65625 M22.20708125 -179.65625 C22.20708125 -98.67024683650376, 22.20708125 -17.68424367300753, 22.20708125 215.40625 M22.20708125 -179.65625 C22.20708125 -27.854532723543144, 22.20708125 123.94718455291371, 22.20708125 215.40625 M22.20708125 215.40625 C22.207053517220615 215.40625, 22.20702578444123 215.40625, 22.20698125 215.40625 M22.20708125 215.40625 C22.20705114225232 215.40625, 22.20702103450463 215.40625, 22.20698125 215.40625 M22.20698125 215.40625 C22.20698125 111.97000253147985, 22.20698125 8.533755062959699, 22.20698125 -179.65625 M22.20698125 215.40625 C22.20698125 108.1653273624496, 22.20698125 0.9244047248992047, 22.20698125 -179.65625" stroke="#2563eb" stroke-width="1.3" fill="none" stroke-dasharray="0 0"/></g><g class="divider"><path d="M-289.03515625 -179.6563 L-289.03515625 -179.6562 L289.03515625 -179.6562 L289.03515625 -179.6563" stroke="none" stroke-width="0" fill="#dbeafe" fill-rule="evenodd"/><path d="M-289.03515625 -179.6563 C-289.03515625 -179.6562766709953, -289.03515625 -179.65625334199063, -289.03515625 -179.6562 M-289.03515625 -179.6563 C-289.03515625 -179.65627092492275, -289.03515625 -179.65624184984551, -289.03515625 -179.6562 M-289.03515625 -179.6562 C-144.69253081110142 -179.6562, -0.3499053722028407 -179.6562, 289.03515625 -179.6562 M-289.03515625 -179.6562 C-120.9748629301219 -179.6562, 47.0854303897562 -179.6562, 289.03515625 -179.6562 M289.03515625 -179.6562 C289.03515625 -179.65623908625057, 289.03515625 -179.65627817250112, 289.03515625 -179.6563 M289.03515625 -179.6562 C289.03515625 -179.65622497286054, 289.03515625 -179.65624994572107, 289.03515625 -179.6563 M289.03515625 -179.6563 C86.37577387973093 -179.6563, -116.28360849053814 -179.6563, -289.03515625 -179.6563 M289.03515625 -179.6563 C137.88423964210307 -179.6563, -13.266676965793863 -179.6563, -289.03515625 -179.6563" stroke="#2563eb" stroke-width="1.3" fill="none" stroke-dasharray="0 0"/></g></g><g class="node default" id="my-svg-entity-SESSIONS-1" data-look="classic" transform="translate(297.03515625, 665.38671875)"><g class="outer-path" style=""><path d="M-185.03125 -125.57421875 L185.03125 -125.57421875 L185.03125 125.57421875 L-185.03125 125.57421875" stroke="none" stroke-width="0" fill="#dbeafe"/><path d="M-185.03125 -125.57421875 C-107.49514854441635 -125.57421875, -29.959047088832705 -125.57421875, 185.03125 -125.57421875 M-185.03125 -125.57421875 C-74.80796355323685 -125.57421875, 35.41532289352631 -125.57421875, 185.03125 -125.57421875 M185.03125 -125.57421875 C185.03125 -25.213032970152696, 185.03125 75.14815280969461, 185.03125 125.57421875 M185.03125 -125.57421875 C185.03125 -27.503724744789366, 185.03125 70.56676926042127, 185.03125 125.57421875 M185.03125 125.57421875 C69.56712154641913 125.57421875, -45.89700690716174 125.57421875, -185.03125 125.57421875 M185.03125 125.57421875 C42.54819478646829 125.57421875, -99.93486042706343 125.57421875, -185.03125 125.57421875 M-185.03125 125.57421875 C-185.03125 61.91765423510504, -185.03125 -1.7389102797899199, -185.03125 -125.57421875 M-185.03125 125.57421875 C-185.03125 66.00546151801561, -185.03125 6.436704286031201, -185.03125 -125.57421875" stroke="#2563eb" stroke-width="1.3" fill="none" stroke-dasharray="0 0"/></g><g style="" class="row-rect-odd"><path d="M-185.03125 -89.82421875 L185.03125 -89.82421875 L185.03125 -54.07421875 L-185.03125 -54.07421875" stroke="none" stroke-width="0" fill="hsl(214.2857142857, 94.5945945946%, 100%)"/><path d="M-185.03125 -89.82421875 C-83.54952459793992 -89.82421875, 17.932200804120157 -89.82421875, 185.03125 -89.82421875 M-185.03125 -89.82421875 C-55.12450725357965 -89.82421875, 74.7822354928407 -89.82421875, 185.03125 -89.82421875 M185.03125 -89.82421875 C185.03125 -75.81475303746129, 185.03125 -61.805287324922574, 185.03125 -54.07421875 M185.03125 -89.82421875 C185.03125 -80.52028442019198, 185.03125 -71.21635009038395, 185.03125 -54.07421875 M185.03125 -54.07421875 C69.0771275311648 -54.07421875, -46.87699493767039 -54.07421875, -185.03125 -54.07421875 M185.03125 -54.07421875 C61.417547323710835 -54.07421875, -62.19615535257833 -54.07421875, -185.03125 -54.07421875 M-185.03125 -54.07421875 C-185.03125 -63.70883803090146, -185.03125 -73.34345731180292, -185.03125 -89.82421875 M-185.03125 -54.07421875 C-185.03125 -61.74378815635108, -185.03125 -69.41335756270216, -185.03125 -89.82421875" stroke="#2563eb" stroke-width="1.3" fill="none" stroke-dasharray="0 0"/></g><g style="" class="row-rect-even"><path d="M-185.03125 -54.07421875 L185.03125 -54.07421875 L185.03125 -18.14453125 L-185.03125 -18.14453125" stroke="none" stroke-width="0" fill="hsl(214.2857142857, 94.5945945946%, 97.7450980392%)"/><path d="M-185.03125 -54.07421875 C-85.55991122226187 -54.07421875, 13.911427555476251 -54.07421875, 185.03125 -54.07421875 M-185.03125 -54.07421875 C-76.5588613175212 -54.07421875, 31.913527364957588 -54.07421875, 185.03125 -54.07421875 M185.03125 -54.07421875 C185.03125 -41.451196036234975, 185.03125 -28.828173322469958, 185.03125 -18.14453125 M185.03125 -54.07421875 C185.03125 -42.50866752574102, 185.03125 -30.943116301482043, 185.03125 -18.14453125 M185.03125 -18.14453125 C64.41297914333104 -18.14453125, -56.205291713337914 -18.14453125, -185.03125 -18.14453125 M185.03125 -18.14453125 C100.06814533257597 -18.14453125, 15.105040665151932 -18.14453125, -185.03125 -18.14453125 M-185.03125 -18.14453125 C-185.03125 -30.38655853121054, -185.03125 -42.62858581242108, -185.03125 -54.07421875 M-185.03125 -18.14453125 C-185.03125 -25.965750571302383, -185.03125 -33.786969892604766, -185.03125 -54.07421875" stroke="#2563eb" stroke-width="1.3" fill="none" stroke-dasharray="0 0"/></g><g style="" class="row-rect-odd"><path d="M-185.03125 -18.14453125 L185.03125 -18.14453125 L185.03125 17.78515625 L-185.03125 17.78515625" stroke="none" stroke-width="0" fill="hsl(214.2857142857, 94.5945945946%, 100%)"/><path d="M-185.03125 -18.14453125 C-40.12128621247567 -18.14453125, 104.78867757504867 -18.14453125, 185.03125 -18.14453125 M-185.03125 -18.14453125 C-41.19165873695238 -18.14453125, 102.64793252609525 -18.14453125, 185.03125 -18.14453125 M185.03125 -18.14453125 C185.03125 -5.848041176137134, 185.03125 6.448448897725733, 185.03125 17.78515625 M185.03125 -18.14453125 C185.03125 -4.221314848325191, 185.03125 9.701901553349618, 185.03125 17.78515625 M185.03125 17.78515625 C75.23847653898291 17.78515625, -34.55429692203418 17.78515625, -185.03125 17.78515625 M185.03125 17.78515625 C82.77939174717301 17.78515625, -19.472466505653983 17.78515625, -185.03125 17.78515625 M-185.03125 17.78515625 C-185.03125 6.83521120880823, -185.03125 -4.114733832383539, -185.03125 -18.14453125 M-185.03125 17.78515625 C-185.03125 6.4411159554733075, -185.03125 -4.902924339053385, -185.03125 -18.14453125" stroke="#2563eb" stroke-width="1.3" fill="none" stroke-dasharray="0 0"/></g><g style="" class="row-rect-even"><path d="M-185.03125 17.78515625 L185.03125 17.78515625 L185.03125 53.71484375 L-185.03125 53.71484375" stroke="none" stroke-width="0" fill="hsl(214.2857142857, 94.5945945946%, 97.7450980392%)"/><path d="M-185.03125 17.78515625 C-37.38495162236407 17.78515625, 110.26134675527186 17.78515625, 185.03125 17.78515625 M-185.03125 17.78515625 C-96.64989596030162 17.78515625, -8.26854192060324 17.78515625, 185.03125 17.78515625 M185.03125 17.78515625 C185.03125 28.649399977282698, 185.03125 39.513643704565396, 185.03125 53.71484375 M185.03125 17.78515625 C185.03125 31.836022367045388, 185.03125 45.886888484090775, 185.03125 53.71484375 M185.03125 53.71484375 C41.677480030066164 53.71484375, -101.67628993986767 53.71484375, -185.03125 53.71484375 M185.03125 53.71484375 C104.29758476592055 53.71484375, 23.563919531841094 53.71484375, -185.03125 53.71484375 M-185.03125 53.71484375 C-185.03125 41.026065003922476, -185.03125 28.337286257844955, -185.03125 17.78515625 M-185.03125 53.71484375 C-185.03125 42.30166672173468, -185.03125 30.888489693469346, -185.03125 17.78515625" stroke="#2563eb" stroke-width="1.3" fill="none" stroke-dasharray="0 0"/></g><g style="" class="row-rect-odd"><path d="M-185.03125 53.71484375 L185.03125 53.71484375 L185.03125 89.64453125 L-185.03125 89.64453125" stroke="none" stroke-width="0" fill="hsl(214.2857142857, 94.5945945946%, 100%)"/><path d="M-185.03125 53.71484375 C-101.63582835282496 53.71484375, -18.240406705649917 53.71484375, 185.03125 53.71484375 M-185.03125 53.71484375 C-81.0689912896742 53.71484375, 22.893267420651597 53.71484375, 185.03125 53.71484375 M185.03125 53.71484375 C185.03125 65.37210217027173, 185.03125 77.02936059054346, 185.03125 89.64453125 M185.03125 53.71484375 C185.03125 65.05298613497243, 185.03125 76.39112851994484, 185.03125 89.64453125 M185.03125 89.64453125 C76.05743339367548 89.64453125, -32.91638321264904 89.64453125, -185.03125 89.64453125 M185.03125 89.64453125 C106.31316202540378 89.64453125, 27.59507405080757 89.64453125, -185.03125 89.64453125 M-185.03125 89.64453125 C-185.03125 78.50006582555997, -185.03125 67.35560040111996, -185.03125 53.71484375 M-185.03125 89.64453125 C-185.03125 82.0380748917709, -185.03125 74.43161853354182, -185.03125 53.71484375" stroke="#2563eb" stroke-width="1.3" fill="none" stroke-dasharray="0 0"/></g><g style="" class="row-rect-even"><path d="M-185.03125 89.64453125 L185.03125 89.64453125 L185.03125 125.57421875 L-185.03125 125.57421875" stroke="none" stroke-width="0" fill="hsl(214.2857142857, 94.5945945946%, 97.7450980392%)"/><path d="M-185.03125 89.64453125 C-105.60185432224642 89.64453125, -26.17245864449285 89.64453125, 185.03125 89.64453125 M-185.03125 89.64453125 C-97.41152110096071 89.64453125, -9.791792201921425 89.64453125, 185.03125 89.64453125 M185.03125 89.64453125 C185.03125 100.69648208166707, 185.03125 111.74843291333414, 185.03125 125.57421875 M185.03125 89.64453125 C185.03125 97.79946307109499, 185.03125 105.95439489218998, 185.03125 125.57421875 M185.03125 125.57421875 C73.84196165311342 125.57421875, -37.34732669377317 125.57421875, -185.03125 125.57421875 M185.03125 125.57421875 C56.91116712726665 125.57421875, -71.2089157454667 125.57421875, -185.03125 125.57421875 M-185.03125 125.57421875 C-185.03125 115.91739013234516, -185.03125 106.26056151469031, -185.03125 89.64453125 M-185.03125 125.57421875 C-185.03125 113.54861824988237, -185.03125 101.52301774976473, -185.03125 89.64453125" stroke="#2563eb" stroke-width="1.3" fill="none" stroke-dasharray="0 0"/></g><g class="label name" transform="translate(-40.90625, -116.19921875)" style=""><g><rect class="background" style="stroke: none"/></g><text y="-10.1" style=""><tspan class="text-outer-tspan row" x="0" y="-0.1em" dy="1.1em"><tspan font-style="normal" class="text-inner-tspan" font-weight="normal">SESSIONS</tspan></tspan></text></g><g class="label attribute-type" transform="translate(-172.53125, -80.44921875)" style=""><g><rect class="background" style="stroke: none"/></g><text y="-10.1" style=""><tspan class="text-outer-tspan row" x="0" y="-0.1em" dy="1.1em"><tspan font-style="normal" class="text-inner-tspan" font-weight="normal">uuid</tspan></tspan></text></g><g class="label attribute-name" transform="translate(-61.28125, -80.44921875)" style=""><g><rect class="background" style="stroke: none"/></g><text y="-10.1" style=""><tspan class="text-outer-tspan row" x="0" y="-0.1em" dy="1.1em"><tspan font-style="normal" class="text-inner-tspan" font-weight="normal">id</tspan></tspan></text></g><g class="label attribute-keys" transform="translate(46.453125, -80.44921875)" style=""><g><rect class="background" style="stroke: none"/></g><text y="-10.1" style=""><tspan class="text-outer-tspan row" x="0" y="-0.1em" dy="1.1em"><tspan font-style="normal" class="text-inner-tspan" font-weight="normal">PK</tspan></tspan></text></g><g class="label attribute-comment" transform="translate(93.6875, -80.44921875)" style=""><g><rect class="background" style="stroke: none"/></g><text y="-10.1" style=""><tspan class="text-outer-tspan row" x="0" y="-0.1em" dy="1.1em"/></text></g><g class="label attribute-type" transform="translate(-172.53125, -44.69921875)" style=""><g><rect class="background" style="stroke: none"/></g><text y="-10.1" style=""><tspan class="text-outer-tspan row" x="0" y="-0.1em" dy="1.1em"><tspan font-style="normal" class="text-inner-tspan" font-weight="normal">uuid</tspan></tspan></text></g><g class="label attribute-name" transform="translate(-61.28125, -44.69921875)" style=""><g><rect class="background" style="stroke: none"/></g><text y="-10.1" style=""><tspan class="text-outer-tspan row" x="0" y="-0.1em" dy="1.1em"><tspan font-style="normal" class="text-inner-tspan" font-weight="normal">user_id</tspan></tspan></text></g><g class="label attribute-keys" transform="translate(46.453125, -44.69921875)" style=""><g><rect class="background" style="stroke: none"/></g><text y="-10.1" style=""><tspan class="text-outer-tspan row" x="0" y="-0.1em" dy="1.1em"><tspan font-style="normal" class="text-inner-tspan" font-weight="normal">FK</tspan></tspan></text></g><g class="label attribute-comment" transform="translate(93.6875, -44.69921875)" style=""><g><rect class="background" style="stroke: none"/></g><text y="-10.1" style=""><tspan class="text-outer-tspan row" x="0" y="-0.1em" dy="1.1em"><tspan font-style="normal" class="text-inner-tspan" font-weight="normal">NOT</tspan><tspan font-style="normal" class="text-inner-tspan" font-weight="normal"> NULL</tspan></tspan></text></g><g class="label attribute-type" transform="translate(-172.53125, -8.76953125)" style=""><g><rect class="background" style="stroke: none"/></g><text y="-10.1" style=""><tspan class="text-outer-tspan row" x="0" y="-0.1em" dy="1.1em"><tspan font-style="normal" class="text-inner-tspan" font-weight="normal">varchar</tspan></tspan></text></g><g class="label attribute-name" transform="translate(-61.28125, -8.76953125)" style=""><g><rect class="background" style="stroke: none"/></g><text y="-10.1" style=""><tspan class="text-outer-tspan row" x="0" y="-0.1em" dy="1.1em"><tspan font-style="normal" class="text-inner-tspan" font-weight="normal">token_hash</tspan></tspan></text></g><g class="label attribute-keys" transform="translate(46.453125, -8.76953125)" style=""><g><rect class="background" style="stroke: none"/></g><text y="-10.1" style=""><tspan class="text-outer-tspan row" x="0" y="-0.1em" dy="1.1em"><tspan font-style="normal" class="text-inner-tspan" font-weight="normal">UK</tspan></tspan></text></g><g class="label attribute-comment" transform="translate(93.6875, -8.76953125)" style=""><g><rect class="background" style="stroke: none"/></g><text y="-10.1" style=""><tspan class="text-outer-tspan row" x="0" y="-0.1em" dy="1.1em"><tspan font-style="normal" class="text-inner-tspan" font-weight="normal">NOT</tspan><tspan font-style="normal" class="text-inner-tspan" font-weight="normal"> NULL</tspan></tspan></text></g><g class="label attribute-type" transform="translate(-172.53125, 27.16015625)" style=""><g><rect class="background" style="stroke: none"/></g><text y="-10.1" style=""><tspan class="text-outer-tspan row" x="0" y="-0.1em" dy="1.1em"><tspan font-style="normal" class="text-inner-tspan" font-weight="normal">timestamptz</tspan></tspan></text></g><g class="label attribute-name" transform="translate(-61.28125, 27.16015625)" style=""><g><rect class="background" style="stroke: none"/></g><text y="-10.1" style=""><tspan class="text-outer-tspan row" x="0" y="-0.1em" dy="1.1em"><tspan font-style="normal" class="text-inner-tspan" font-weight="normal">expires_at</tspan></tspan></text></g><g class="label attribute-keys" transform="translate(46.453125, 27.16015625)" style=""><g><rect class="background" style="stroke: none"/></g><text y="-10.1" style=""><tspan class="text-outer-tspan row" x="0" y="-0.1em" dy="1.1em"/></text></g><g class="label attribute-comment" transform="translate(93.6875, 27.16015625)" style=""><g><rect class="background" style="stroke: none"/></g><text y="-10.1" style=""><tspan class="text-outer-tspan row" x="0" y="-0.1em" dy="1.1em"><tspan font-style="normal" class="text-inner-tspan" font-weight="normal">NOT</tspan><tspan font-style="normal" class="text-inner-tspan" font-weight="normal"> NULL</tspan></tspan></text></g><g class="label attribute-type" transform="translate(-172.53125, 63.08984375)" style=""><g><rect class="background" style="stroke: none"/></g><text y="-10.1" style=""><tspan class="text-outer-tspan row" x="0" y="-0.1em" dy="1.1em"><tspan font-style="normal" class="text-inner-tspan" font-weight="normal">timestamptz</tspan></tspan></text></g><g class="label attribute-name" transform="translate(-61.28125, 63.08984375)" style=""><g><rect class="background" style="stroke: none"/></g><text y="-10.1" style=""><tspan class="text-outer-tspan row" x="0" y="-0.1em" dy="1.1em"><tspan font-style="normal" class="text-inner-tspan" font-weight="normal">revoked_at</tspan></tspan></text></g><g class="label attribute-keys" transform="translate(46.453125, 63.08984375)" style=""><g><rect class="background" style="stroke: none"/></g><text y="-10.1" style=""><tspan class="text-outer-tspan row" x="0" y="-0.1em" dy="1.1em"/></text></g><g class="label attribute-comment" transform="translate(93.6875, 63.08984375)" style=""><g><rect class="background" style="stroke: none"/></g><text y="-10.1" style=""><tspan class="text-outer-tspan row" x="0" y="-0.1em" dy="1.1em"><tspan font-style="normal" class="text-inner-tspan" font-weight="normal">nullable</tspan></tspan></text></g><g class="label attribute-type" transform="translate(-172.53125, 99.01953125)" style=""><g><rect class="background" style="stroke: none"/></g><text y="-10.1" style=""><tspan class="text-outer-tspan row" x="0" y="-0.1em" dy="1.1em"><tspan font-style="normal" class="text-inner-tspan" font-weight="normal">timestamptz</tspan></tspan></text></g><g class="label attribute-name" transform="translate(-61.28125, 99.01953125)" style=""><g><rect class="background" style="stroke: none"/></g><text y="-10.1" style=""><tspan class="text-outer-tspan row" x="0" y="-0.1em" dy="1.1em"><tspan font-style="normal" class="text-inner-tspan" font-weight="normal">created_at</tspan></tspan></text></g><g class="label attribute-keys" transform="translate(46.453125, 99.01953125)" style=""><g><rect class="background" style="stroke: none"/></g><text y="-10.1" style=""><tspan class="text-outer-tspan row" x="0" y="-0.1em" dy="1.1em"/></text></g><g class="label attribute-comment" transform="translate(93.6875, 99.01953125)" style=""><g><rect class="background" style="stroke: none"/></g><text y="-10.1" style=""><tspan class="text-outer-tspan row" x="0" y="-0.1em" dy="1.1em"><tspan font-style="normal" class="text-inner-tspan" font-weight="normal">NOT</tspan><tspan font-style="normal" class="text-inner-tspan" font-weight="normal"> NULL</tspan></tspan></text></g><g class="divider"><path d="M-185.03125 -89.82426875 L-185.03125 -89.82416875 L185.03125 -89.82416875 L185.03125 -89.82426875" stroke="none" stroke-width="0" fill="#dbeafe" fill-rule="evenodd"/><path d="M-185.03125 -89.82426875 C-185.03125 -89.82423112739576, -185.03125 -89.82419350479151, -185.03125 -89.82416875 M-185.03125 -89.82426875 C-185.03125 -89.82424455142629, -185.03125 -89.82422035285259, -185.03125 -89.82416875 M-185.03125 -89.82416875 C-94.53660063366186 -89.82416875, -4.041951267323725 -89.82416875, 185.03125 -89.82416875 M-185.03125 -89.82416875 C-43.1884964286792 -89.82416875, 98.6542571426416 -89.82416875, 185.03125 -89.82416875 M185.03125 -89.82416875 C185.03125 -89.82418978565687, 185.03125 -89.82421082131374, 185.03125 -89.82426875 M185.03125 -89.82416875 C185.03125 -89.82419940709929, 185.03125 -89.82423006419859, 185.03125 -89.82426875 M185.03125 -89.82426875 C84.58459363466277 -89.82426875, -15.862062730674467 -89.82426875, -185.03125 -89.82426875 M185.03125 -89.82426875 C99.30449471587323 -89.82426875, 13.577739431746465 -89.82426875, -185.03125 -89.82426875" stroke="#2563eb" stroke-width="1.3" fill="none" stroke-dasharray="0 0"/></g><g class="divider"><path d="M-73.7813 -89.82421875 L-73.7812 -89.82421875 L-73.7812 125.57421875 L-73.7813 125.57421875" stroke="none" stroke-width="0" fill="#dbeafe" fill-rule="evenodd"/><path d="M-73.7813 -89.82421875 C-73.78127479621254 -89.82421875, -73.78124959242508 -89.82421875, -73.7812 -89.82421875 M-73.7813 -89.82421875 C-73.78127358682195 -89.82421875, -73.78124717364392 -89.82421875, -73.7812 -89.82421875 M-73.7812 -89.82421875 C-73.7812 -11.552174976011969, -73.7812 66.71986879797606, -73.7812 125.57421875 M-73.7812 -89.82421875 C-73.7812 -37.76269006746915, -73.7812 14.298838615061698, -73.7812 125.57421875 M-73.7812 125.57421875 C-73.78122427873124 125.57421875, -73.78124855746249 125.57421875, -73.7813 125.57421875 M-73.7812 125.57421875 C-73.78122818825537 125.57421875, -73.78125637651075 125.57421875, -73.7813 125.57421875 M-73.7813 125.57421875 C-73.7813 42.0114162820003, -73.7813 -41.551386185999405, -73.7813 -89.82421875 M-73.7813 125.57421875 C-73.7813 61.48739151435623, -73.7813 -2.5994357212875343, -73.7813 -89.82421875" stroke="#2563eb" stroke-width="1.3" fill="none" stroke-dasharray="0 0"/></g><g class="divider"><path d="M33.953075 -89.82421875 L33.953175 -89.82421875 L33.953175 125.57421875 L33.953075 125.57421875" stroke="none" stroke-width="0" fill="#dbeafe" fill-rule="evenodd"/><path d="M33.953075 -89.82421875 C33.95309783635061 -89.82421875, 33.95312067270122 -89.82421875, 33.953175 -89.82421875 M33.953075 -89.82421875 C33.95311105922657 -89.82421875, 33.953147118453145 -89.82421875, 33.953175 -89.82421875 M33.953175 -89.82421875 C33.953175 -16.47401363443109, 33.953175 56.87619148113782, 33.953175 125.57421875 M33.953175 -89.82421875 C33.953175 -38.54443379009096, 33.953175 12.735351169818074, 33.953175 125.57421875 M33.953175 125.57421875 C33.95314793695766 125.57421875, 33.953120873915324 125.57421875, 33.953075 125.57421875 M33.953175 125.57421875 C33.95314401596455 125.57421875, 33.9531130319291 125.57421875, 33.953075 125.57421875 M33.953075 125.57421875 C33.953075 40.02130792058516, 33.953075 -45.53160290882968, 33.953075 -89.82421875 M33.953075 125.57421875 C33.953075 78.8964946794935, 33.953075 32.218770608987, 33.953075 -89.82421875" stroke="#2563eb" stroke-width="1.3" fill="none" stroke-dasharray="0 0"/></g><g class="divider"><path d="M81.18745 -89.82421875 L81.18755 -89.82421875 L81.18755 125.57421875 L81.18745 125.57421875" stroke="none" stroke-width="0" fill="#dbeafe" fill-rule="evenodd"/><path d="M81.18745 -89.82421875 C81.1874701151984 -89.82421875, 81.1874902303968 -89.82421875, 81.18755 -89.82421875 M81.18745 -89.82421875 C81.18747501945923 -89.82421875, 81.18750003891844 -89.82421875, 81.18755 -89.82421875 M81.18755 -89.82421875 C81.18755 -9.190281632081437, 81.18755 71.44365548583713, 81.18755 125.57421875 M81.18755 -89.82421875 C81.18755 -43.78090075209438, 81.18755 2.2624172458112355, 81.18755 125.57421875 M81.18755 125.57421875 C81.1875126104057 125.57421875, 81.1874752208114 125.57421875, 81.18745 125.57421875 M81.18755 125.57421875 C81.1875229630826 125.57421875, 81.18749592616521 125.57421875, 81.18745 125.57421875 M81.18745 125.57421875 C81.18745 75.18764190808768, 81.18745 24.80106506617537, 81.18745 -89.82421875 M81.18745 125.57421875 C81.18745 80.65702814539125, 81.18745 35.73983754078252, 81.18745 -89.82421875" stroke="#2563eb" stroke-width="1.3" fill="none" stroke-dasharray="0 0"/></g><g class="divider"><path d="M-185.03125 -89.82426875 L-185.03125 -89.82416875 L185.03125 -89.82416875 L185.03125 -89.82426875" stroke="none" stroke-width="0" fill="#dbeafe" fill-rule="evenodd"/><path d="M-185.03125 -89.82426875 C-185.03125 -89.82422979707962, -185.03125 -89.82419084415926, -185.03125 -89.82416875 M-185.03125 -89.82426875 C-185.03125 -89.82423568378212, -185.03125 -89.82420261756423, -185.03125 -89.82416875 M-185.03125 -89.82416875 C-38.5753957217735 -89.82416875, 107.880458556453 -89.82416875, 185.03125 -89.82416875 M-185.03125 -89.82416875 C-90.76065292178923 -89.82416875, 3.5099441564215397 -89.82416875, 185.03125 -89.82416875 M185.03125 -89.82416875 C185.03125 -89.82418935427964, 185.03125 -89.82420995855928, 185.03125 -89.82426875 M185.03125 -89.82416875 C185.03125 -89.82420357833577, 185.03125 -89.82423840667155, 185.03125 -89.82426875 M185.03125 -89.82426875 C70.13808151453318 -89.82426875, -44.75508697093363 -89.82426875, -185.03125 -89.82426875 M185.03125 -89.82426875 C73.26584953612547 -89.82426875, -38.499550927749056 -89.82426875, -185.03125 -89.82426875" stroke="#2563eb" stroke-width="1.3" fill="none" stroke-dasharray="0 0"/></g></g></g></g></g><defs><filter id="my-svg-drop-shadow" height="130%" width="130%"><feDropShadow dx="4" dy="4" stdDeviation="0" flood-opacity="0.06" flood-color="#000000"/></filter></defs><defs><filter id="my-svg-drop-shadow-small" height="150%" width="150%"><feDropShadow dx="2" dy="2" stdDeviation="0" flood-opacity="0.06" flood-color="#000000"/></filter></defs><linearGradient id="my-svg-gradient" gradientUnits="objectBoundingBox" x1="0%" y1="0%" x2="100%" y2="0%"><stop offset="0%" stop-color="#2563eb" stop-opacity="1"/><stop offset="100%" stop-color="hsl(251.4285714286, 51.3043478261%, 85.4901960784%)" stop-opacity="1"/></linearGradient></svg>